<svg width="1640" height="280" viewBox="0 0 1640 280" fill="none" xmlns="http://www.w3.org/2000/svg">
<rect width="1640" height="280" fill="#00005B"/>
<mask id="mask0_239_27" style="mask-type:alpha" maskUnits="userSpaceOnUse" x="0" y="0" width="1640" height="280">
<rect width="1640" height="280" fill="url(#paint0_linear_239_27)"/>
</mask>
<g mask="url(#mask0_239_27)">
<path d="M949.467 653.035C922.235 608.242 898.01 566.063 872.359 526.661C741.408 325.176 595.782 165.189 427.305 71.6708C333.79 19.7848 238.265 -7.23051 139.376 6.37187C-16.1451 27.7783 -142.219 144.535 -239.848 350.49C-336.687 554.718 -386.962 793.487 -408.7 1051.23C-425.352 1248.65 -422.699 1444.8 -392.852 1638.99C-382.077 1709.09 -403.156 1773.21 -440.183 1790.52C-479.876 1809.1 -516.5 1772.88 -528.244 1700.97C-550.704 1563.38 -558.871 1422.59 -558.999 1280.05C-559.209 1054.33 -537.247 835.134 -492.686 622.926C-438.968 366.994 -356.675 143.824 -233.068 -30.596C-134.066 -170.283 -20.4813 -255.229 106.086 -288.631C269.858 -331.925 427.719 -287.492 581.283 -188.947C803.798 -46.1413 993.601 181.053 1157.64 473.283C1167.53 490.874 1173.87 493.59 1186.24 480.803C1312.34 350.739 1414.37 180.494 1486.06 -41.2078C1501.76 -89.7896 1529.14 -112.236 1559.73 -103.984C1588.24 -96.2698 1610.24 -59.9519 1616.68 -8.39548C1620.86 25.076 1614.58 55.1699 1605.06 84.1228C1544.93 266.222 1466.66 422.003 1371.91 553.336C1338.18 600.114 1302.34 642.452 1265.88 688.85C1269.79 698.92 1274.1 710.767 1278.78 722.099C1329.86 845.723 1374.34 975.29 1401.16 1120.79C1425.47 1252.74 1434.23 1385.86 1408.64 1520.34C1374.73 1698.29 1299.81 1803.28 1199.01 1859.73C1125.61 1900.89 1049.72 1906.33 973.435 1896.79C805.037 1875.72 645.248 1792.72 488.181 1692.78C276.346 1557.95 73.3255 1391.22 -120.101 1190.93C-179.322 1129.6 -237.246 1064.33 -287.342 981.191C-317.358 931.392 -341.618 875.666 -345.761 801.715C-353.053 671.369 -290.299 561.828 -214.452 578.852C-155.381 592.118 -96.9502 614.557 -38.5577 635.575C101.512 686.059 242.389 727.099 385.321 743.895C516.999 759.399 648.49 755.671 779.02 720.042C831.171 705.821 882.488 682.577 934.156 663.206C938.13 661.703 941.878 658.156 949.538 653.034L949.467 653.035ZM342.617 1033.16C342.275 1034.61 341.919 1036.02 341.577 1037.47C346.107 1041.12 350.513 1045.29 355.194 1048.38C456.905 1115.17 557.786 1185.9 660.559 1247.39C775.911 1316.33 893.794 1370.62 1016.54 1385.39C1056.38 1390.15 1096.29 1390.54 1134.79 1368.24C1154.82 1356.64 1160.08 1344.96 1159.52 1308.6C1159.04 1278.28 1157.87 1247.3 1153.72 1217.97C1136.2 1093.86 1099.63 985.276 1057.1 882.115C1054.63 876.114 1046.22 871.464 1042.2 873.98C943.242 934.81 842.033 981.32 737.528 1001.57C655.869 1017.38 573.69 1026.98 491.593 1034.38C442.077 1038.88 392.254 1033.89 342.589 1033.19L342.617 1033.16Z" fill="url(#paint1_linear_239_27)"/>
</g>
<defs>
<linearGradient id="paint0_linear_239_27" x1="255.464" y1="105.57" x2="641.305" y2="490.999" gradientUnits="userSpaceOnUse">
<stop stop-color="#00005A"/>
<stop offset="0.292841" stop-color="#0047FF"/>
<stop offset="0.933678" stop-color="#00FFFF" stop-opacity="0.62"/>
</linearGradient>
<linearGradient id="paint1_linear_239_27" x1="-219.887" y1="526.557" x2="775.192" y2="694.034" gradientUnits="userSpaceOnUse">
<stop stop-color="#00005A"/>
<stop offset="0.292841" stop-color="#0047FF"/>
<stop offset="0.933678" stop-color="#00FFFF" stop-opacity="0.62"/>
</linearGradient>
</defs>
</svg>
