<svg width="104" height="102" viewBox="0 0 104 102" fill="none" xmlns="http://www.w3.org/2000/svg">
<path d="M60.8571 22.5C60.8571 33.7936 51.5502 43 40 43C28.4498 43 19.1429 33.7936 19.1429 22.5C19.1429 11.2064 28.4498 2 40 2C51.5502 2 60.8571 11.2064 60.8571 22.5ZM40 55.4375C44.7824 55.4375 49.333 54.4201 53.4423 52.625H56C68.1752 52.625 78 62.3412 78 74.25V81.5625C78 85.0866 75.086 88 71.4286 88H8.57143C4.91404 88 2 85.0866 2 81.5625V74.25C2 62.3412 11.8248 52.625 24 52.625H26.5593C30.6812 54.419 35.2149 55.4375 40 55.4375Z" stroke="#194997" stroke-width="4"/>
<path d="M98.3158 74.9737H97.8158V75.4737V80.6412L97.7243 80.6416C97.3706 80.6431 96.899 80.6449 96.4269 80.6461C95.9546 80.6472 95.4825 80.6478 95.1277 80.6469C95.0926 80.6469 95.0588 80.6468 95.0263 80.6466V75.4737V74.9737H94.5263H89.3444L89.3448 74.8863C89.3462 74.5324 89.348 74.0602 89.3492 73.5873C89.3504 73.1146 89.351 72.6405 89.3501 72.2831C89.35 72.2491 89.3499 72.2161 89.3498 72.1842H94.5263H95.0263V71.6842V66.5H97.8158V71.6842V72.1842H98.3158H103.5V74.9737H98.3158ZM92.1316 83.0526V83.5526H92.6316H97.8158V98.2105C97.8158 100.019 96.3344 101.5 94.5263 101.5H71.7895C69.9814 101.5 68.5 100.019 68.5 98.2105V75.4737C68.5 73.6656 69.9814 72.1842 71.7895 72.1842H86.4474V77.3684V77.8684H86.9474H92.1316V83.0526ZM71.3895 97.9105L70.7895 98.7105H71.7895H94.5263H95.5666L94.9167 97.8982L87.3378 88.4245L86.9346 87.9205L86.5474 88.4368L81.2872 95.4504L77.8897 90.3542L77.4977 89.7662L77.0737 90.3316L71.3895 97.9105Z" fill="#194997" stroke="#194997"/>
</svg>
