<svg class="animated" id="freepik_stories-race-car" xmlns="http://www.w3.org/2000/svg" viewBox="0 0 500 500" version="1.1" xmlns:xlink="http://www.w3.org/1999/xlink" xmlns:svgjs="http://svgjs.com/svgjs"><style>svg#freepik_stories-race-car:not(.animated) .animable {opacity: 0;}svg#freepik_stories-race-car.animated #freepik--Car--inject-61 {animation: 1s 1 forwards cubic-bezier(.36,-0.01,.5,1.38) slideLeft,6s Infinite  linear floating;animation-delay: 0s,2s;}            @keyframes slideLeft {                0% {                    opacity: 0;                    transform: translateX(-30px);                }                100% {                    opacity: 1;                    transform: translateX(0);                }            }                    @keyframes floating {                0% {                    opacity: 1;                    transform: translateY(0px);                }                50% {                    transform: translateY(-10px);                }                100% {                    opacity: 1;                    transform: translateY(0px);                }            }        </style><g id="freepik--Crowd--inject-61" class="animable" style="transform-origin: 250.03px 202.39px;"><g id="freepik--Stands--inject-61" class="animable" style="transform-origin: 250.03px 202.39px;"><path d="M488.31,258.16v83.48H11.69V255.53c12.9-15,30.69-28.6,53-40.44,101.56-53.8,266.81-53.8,368.37,0C456.74,227.61,475.28,242.08,488.31,258.16Z" style="fill: rgb(245, 245, 245); transform-origin: 250px 258.19px;" id="elhh8410x9dgh" class="animable"></path><path d="M493.47,153.28a.54.54,0,0,1-.44-.22c-13-18.33-33-34.7-59.35-48.67-101.28-53.65-266.08-53.65-367.36,0C40,118.36,20,134.73,7,153.05a.55.55,0,0,1-.73.14.49.49,0,0,1-.14-.7c13.11-18.45,33.2-34.93,59.71-49,101.56-53.8,266.82-53.8,368.38,0,26.51,14,46.6,30.52,59.71,49a.48.48,0,0,1-.14.69A.52.52,0,0,1,493.47,153.28Z" style="fill: rgb(240, 240, 240); transform-origin: 250.03px 108.21px;" id="elqpdokiw0res" class="animable"></path><g id="freepik--People--inject-61"><g style="opacity: 0.6; transform-origin: 249.996px 151.716px;" class="animable"><path d="M395.55,108.92a6.72,6.72,0,1,1-6.72-6.72A6.72,6.72,0,0,1,395.55,108.92Z" style="fill: rgb(230, 230, 230); transform-origin: 388.83px 108.92px;" id="elmj4ab8d1nl" class="animable"></path><circle cx="315.15" cy="83.18" r="6.72" style="fill: rgb(240, 240, 240); transform-origin: 315.15px 83.18px;" id="el7y9j2j9z7kj" class="animable"></circle><circle cx="387.3" cy="129.09" r="6.72" style="fill: rgb(240, 240, 240); transform-origin: 387.3px 129.09px;" id="elos6sywqu9c" class="animable"></circle><circle cx="372.16" cy="174.3" r="6.72" style="fill: rgb(240, 240, 240); transform-origin: 372.16px 174.3px;" id="el4pjdcn924ns" class="animable"></circle><path d="M422.84,151.83a6.72,6.72,0,1,1-6.72-6.72A6.72,6.72,0,0,1,422.84,151.83Z" style="fill: rgb(245, 245, 245); transform-origin: 416.12px 151.83px;" id="el5lrth9ks32i" class="animable"></path><circle cx="418.51" cy="115.64" r="6.72" style="fill: rgb(240, 240, 240); transform-origin: 418.51px 115.64px;" id="elc1x1j9a1e78" class="animable"></circle><circle cx="326.46" cy="122.36" r="6.72" style="fill: rgb(240, 240, 240); transform-origin: 326.46px 122.36px;" id="elkx9289letx" class="animable"></circle><circle cx="408.99" cy="181.23" r="6.72" style="fill: rgb(230, 230, 230); transform-origin: 408.99px 181.23px;" id="elzcc2gcd5oz" class="animable"></circle><path d="M440.65,178.58a6.72,6.72,0,1,1-6.72-6.73A6.72,6.72,0,0,1,440.65,178.58Z" style="fill: rgb(240, 240, 240); transform-origin: 433.93px 178.57px;" id="elc7n2a2v7laj" class="animable"></path><circle cx="393.24" cy="158.41" r="6.72" style="fill: rgb(240, 240, 240); transform-origin: 393.24px 158.41px;" id="elh16596obstf" class="animable"></circle><circle cx="369.64" cy="143.76" r="6.72" style="fill: rgb(240, 240, 240); transform-origin: 369.64px 143.76px;" id="eloln3gv0lhcq" class="animable"></circle><path d="M359.49,166.53a6.72,6.72,0,1,1-6.72-6.72A6.72,6.72,0,0,1,359.49,166.53Z" style="fill: rgb(245, 245, 245); transform-origin: 352.77px 166.53px;" id="el7gajy63379" class="animable"></path><path d="M330.72,160.86a6.72,6.72,0,1,1-6.72-6.72A6.72,6.72,0,0,1,330.72,160.86Z" style="fill: rgb(240, 240, 240); transform-origin: 324px 160.86px;" id="el4pw530e2yl5" class="animable"></path><circle cx="353.67" cy="122.36" r="6.72" style="fill: rgb(245, 245, 245); transform-origin: 353.67px 122.36px;" id="elt6h9hix6c9r" class="animable"></circle><circle cx="338.36" cy="145.89" r="6.72" style="fill: rgb(230, 230, 230); transform-origin: 338.36px 145.89px;" id="elyo81kzf9i5g" class="animable"></circle><circle cx="362.36" cy="98.47" r="6.72" style="fill: rgb(240, 240, 240); transform-origin: 362.36px 98.47px;" id="el462msm4m5s2" class="animable"></circle><path d="M342.36,95.08a6.72,6.72,0,1,1-6.72-6.72A6.72,6.72,0,0,1,342.36,95.08Z" style="fill: rgb(240, 240, 240); transform-origin: 335.64px 95.08px;" id="elssts6vqbrar" class="animable"></path><path d="M443.73,137a6.72,6.72,0,1,1-6.72-6.72A6.72,6.72,0,0,1,443.73,137Z" style="fill: rgb(245, 245, 245); transform-origin: 437.01px 137px;" id="el0fg1ji1l50vo" class="animable"></path><path d="M455.39,160a6.72,6.72,0,1,1-6.72-6.72A6.72,6.72,0,0,1,455.39,160Z" style="fill: rgb(240, 240, 240); transform-origin: 448.67px 160px;" id="el40qo4xfik2e" class="animable"></path><circle cx="474" cy="218.76" r="6.72" style="fill: rgb(245, 245, 245); transform-origin: 474px 218.76px;" id="elfh6iqi4fzu" class="animable"></circle><circle cx="447.37" cy="198.74" r="6.72" style="fill: rgb(240, 240, 240); transform-origin: 447.37px 198.74px;" id="elth9p0jflne" class="animable"></circle><circle cx="475.55" cy="165.13" r="6.72" style="fill: rgb(245, 245, 245); transform-origin: 475.55px 165.13px;" id="elr861u66nvo" class="animable"></circle><circle cx="467.28" cy="192.02" r="6.72" style="fill: rgb(230, 230, 230); transform-origin: 467.28px 192.02px;" id="el8px3i19mk7h" class="animable"></circle><circle cx="462.11" cy="143.76" r="6.72" style="fill: rgb(240, 240, 240); transform-origin: 462.11px 143.76px;" id="el2vtkjixb2h9" class="animable"></circle><circle cx="264.47" cy="107.35" r="6.72" style="fill: rgb(230, 230, 230); transform-origin: 264.47px 107.35px;" id="eldoxpzyk0ayt" class="animable"></circle><path d="M277.91,83a6.72,6.72,0,1,1-6.72-6.72A6.72,6.72,0,0,1,277.91,83Z" style="fill: rgb(240, 240, 240); transform-origin: 271.19px 83px;" id="el9su9e7u4k8c" class="animable"></path><path d="M281.24,131.7a6.73,6.73,0,1,1-6.73-6.72A6.72,6.72,0,0,1,281.24,131.7Z" style="fill: rgb(240, 240, 240); transform-origin: 274.51px 131.71px;" id="el5j1w5w7zwye" class="animable"></path><circle cx="297.45" cy="118.86" r="6.72" style="fill: rgb(245, 245, 245); transform-origin: 297.45px 118.86px;" id="elhh13w9c5n9j" class="animable"></circle><circle cx="290.14" cy="94.61" r="6.72" style="fill: rgb(240, 240, 240); transform-origin: 290.14px 94.61px;" id="eln81no5ek7zi" class="animable"></circle><circle cx="290.14" cy="155.22" r="6.72" style="fill: rgb(230, 230, 230); transform-origin: 290.14px 155.22px;" id="elw9ho8blcj6k" class="animable"></circle><path d="M317.28,139.17a6.72,6.72,0,1,1-6.72-6.72A6.72,6.72,0,0,1,317.28,139.17Z" style="fill: rgb(240, 240, 240); transform-origin: 310.56px 139.17px;" id="elnir93xn2pah" class="animable"></path><path d="M89.71,118.86a6.72,6.72,0,1,0,6.2-7.2A6.71,6.71,0,0,0,89.71,118.86Z" style="fill: rgb(230, 230, 230); transform-origin: 96.4111px 118.361px;" id="el2gxmgnr6apj" class="animable"></path><path d="M160.33,86.44a6.72,6.72,0,1,0,6.21-7.2A6.72,6.72,0,0,0,160.33,86.44Z" style="fill: rgb(240, 240, 240); transform-origin: 167.032px 85.942px;" id="eld87nobfl7h" class="animable"></path><path d="M80.09,143.36a6.72,6.72,0,1,0,6.21-7.2A6.74,6.74,0,0,0,80.09,143.36Z" style="fill: rgb(240, 240, 240); transform-origin: 86.7922px 142.862px;" id="elxuqrf5w1j8" class="animable"></path><path d="M78.47,168.08a6.72,6.72,0,1,0,6.21-7.2A6.72,6.72,0,0,0,78.47,168.08Z" style="fill: rgb(245, 245, 245); transform-origin: 85.1715px 167.582px;" id="elr8ga58r59q" class="animable"></path><path d="M61.87,125.75a6.72,6.72,0,1,0,6.2-7.2A6.71,6.71,0,0,0,61.87,125.75Z" style="fill: rgb(240, 240, 240); transform-origin: 68.5711px 125.251px;" id="elwldodqlesc" class="animable"></path><path d="M152,126.36a6.72,6.72,0,1,0,6.2-7.21A6.73,6.73,0,0,0,152,126.36Z" style="fill: rgb(240, 240, 240); transform-origin: 158.701px 125.851px;" id="el88in1u910ci" class="animable"></path><g id="elb83qek0wa09"><circle cx="71.73" cy="194.46" r="6.72" style="fill: rgb(240, 240, 240); transform-origin: 71.73px 194.46px; transform: rotate(-88.61deg);" class="animable"></circle></g><path d="M101.74,179.07a6.72,6.72,0,1,0,6.2-7.2A6.73,6.73,0,0,0,101.74,179.07Z" style="fill: rgb(240, 240, 240); transform-origin: 108.442px 178.571px;" id="el6kpuw0k76rd" class="animable"></path><path d="M110.51,150.91a6.72,6.72,0,1,0,6.2-7.2A6.71,6.71,0,0,0,110.51,150.91Z" style="fill: rgb(240, 240, 240); transform-origin: 117.211px 150.411px;" id="el2iv53w902na" class="animable"></path><path d="M129,172.35a6.72,6.72,0,1,0,6.2-7.2A6.72,6.72,0,0,0,129,172.35Z" style="fill: rgb(245, 245, 245); transform-origin: 135.701px 171.851px;" id="eld7wvbxptr8g" class="animable"></path><path d="M160.33,165.63a6.72,6.72,0,1,0,6.21-7.2A6.72,6.72,0,0,0,160.33,165.63Z" style="fill: rgb(240, 240, 240); transform-origin: 167.032px 165.132px;" id="elo9j5uephcdp" class="animable"></path><path d="M124.84,128.38a6.72,6.72,0,1,0,6.2-7.2A6.71,6.71,0,0,0,124.84,128.38Z" style="fill: rgb(245, 245, 245); transform-origin: 131.541px 127.881px;" id="elhpy5f0zkzp" class="animable"></path><path d="M141.86,150.7a6.72,6.72,0,1,0,6.2-7.2A6.71,6.71,0,0,0,141.86,150.7Z" style="fill: rgb(230, 230, 230); transform-origin: 148.561px 150.201px;" id="elrzp16z2u46e" class="animable"></path><path d="M114.39,105.19A6.72,6.72,0,1,0,120.6,98,6.73,6.73,0,0,0,114.39,105.19Z" style="fill: rgb(240, 240, 240); transform-origin: 121.093px 104.702px;" id="el4t70hgml2cy" class="animable"></path><path d="M140.79,99.83a6.72,6.72,0,1,0,6.2-7.2A6.71,6.71,0,0,0,140.79,99.83Z" style="fill: rgb(240, 240, 240); transform-origin: 147.491px 99.3313px;" id="el7dif2hxgn06" class="animable"></path><g id="el5feva1id89o"><circle cx="58.29" cy="162.68" r="6.72" style="fill: rgb(245, 245, 245); transform-origin: 58.29px 162.68px; transform: rotate(-78.29deg);" class="animable"></circle></g><path d="M38.42,195a6.72,6.72,0,1,0,6.21-7.2A6.73,6.73,0,0,0,38.42,195Z" style="fill: rgb(240, 240, 240); transform-origin: 45.1219px 194.502px;" id="eld6267jf9hpi" class="animable"></path><path d="M17.74,180.11A6.72,6.72,0,1,0,24,172.9,6.73,6.73,0,0,0,17.74,180.11Z" style="fill: rgb(245, 245, 245); transform-origin: 24.4414px 179.606px;" id="el5lw6sbut3sm" class="animable"></path><path d="M22.09,220.94a6.72,6.72,0,1,0,6.2-7.21A6.73,6.73,0,0,0,22.09,220.94Z" style="fill: rgb(230, 230, 230); transform-origin: 28.7911px 220.431px;" id="elb1utlk7w42" class="animable"></path><path d="M31.7,149.31a6.72,6.72,0,1,0,6.21-7.2A6.72,6.72,0,0,0,31.7,149.31Z" style="fill: rgb(240, 240, 240); transform-origin: 38.4015px 148.812px;" id="el1l5h0mnkq5" class="animable"></path><path d="M204.47,121.42a6.72,6.72,0,1,0,6.2-7.2A6.71,6.71,0,0,0,204.47,121.42Z" style="fill: rgb(240, 240, 240); transform-origin: 211.171px 120.921px;" id="elaizbdn78evg" class="animable"></path><path d="M184,129.58a6.72,6.72,0,1,0,6.2-7.2A6.72,6.72,0,0,0,184,129.58Z" style="fill: rgb(245, 245, 245); transform-origin: 190.701px 129.081px;" id="el6miiq9pbtnm" class="animable"></path><g id="ely8i43ozgbve"><circle cx="177.27" cy="144.13" r="6.72" style="fill: rgb(245, 245, 245); transform-origin: 177.27px 144.13px; transform: rotate(-78.29deg);" class="animable"></circle></g><path d="M181.61,100.61a6.72,6.72,0,1,0,6.2-7.2A6.71,6.71,0,0,0,181.61,100.61Z" style="fill: rgb(240, 240, 240); transform-origin: 188.311px 100.111px;" id="elb316sj41928" class="animable"></path><path d="M195.05,157.74a6.72,6.72,0,1,0,6.2-7.2A6.73,6.73,0,0,0,195.05,157.74Z" style="fill: rgb(240, 240, 240); transform-origin: 201.752px 157.241px;" id="el0egc9zdxlvp8" class="animable"></path><circle cx="260.73" cy="155.96" r="6.72" style="fill: rgb(240, 240, 240); transform-origin: 260.73px 155.96px;" id="elb2q3tvsu3rq" class="animable"></circle><path d="M255.55,134.14a6.72,6.72,0,1,1-6.72-6.73A6.72,6.72,0,0,1,255.55,134.14Z" style="fill: rgb(240, 240, 240); transform-origin: 248.83px 134.13px;" id="elpg86gwu3irp" class="animable"></path><path d="M244.27,160a6.72,6.72,0,1,1-6.72-6.72A6.72,6.72,0,0,1,244.27,160Z" style="fill: rgb(245, 245, 245); transform-origin: 237.55px 160px;" id="elqdcvr61rfeb" class="animable"></path><circle cx="223.97" cy="144.13" r="6.72" style="fill: rgb(240, 240, 240); transform-origin: 223.97px 144.13px;" id="elvc36blsi82h" class="animable"></circle><circle cx="232.12" cy="112.87" r="6.72" style="fill: rgb(245, 245, 245); transform-origin: 232.12px 112.87px;" id="el7b4d2uyk3zx" class="animable"></circle><circle cx="238.84" cy="87.25" r="6.72" style="fill: rgb(240, 240, 240); transform-origin: 238.84px 87.25px;" id="elcwo55y2daia" class="animable"></circle><path d="M221.56,87.66a6.73,6.73,0,1,1-6.72-6.72A6.72,6.72,0,0,1,221.56,87.66Z" style="fill: rgb(240, 240, 240); transform-origin: 214.83px 87.67px;" id="el0h2t8wrxcrsg" class="animable"></path></g></g></g></g><g id="freepik--Floor--inject-61" class="animable" style="transform-origin: 250px 338.13px;"><ellipse id="freepik--floor--inject-61" cx="250" cy="338.13" rx="238.4" ry="137.64" style="fill: rgb(224, 224, 224); transform-origin: 250px 338.13px;" class="animable"></ellipse></g><g id="freepik--Sun--inject-61" class="animable" style="transform-origin: 84.14px 41.83px;"><g id="freepik--sun--inject-61"><circle cx="84.14" cy="41.83" r="13.61" style="fill: rgb(255, 189, 167); transform-origin: 84.14px 41.83px; transform: rotate(-76.72deg);" class="animable"></circle></g></g><g id="freepik--Clouds--inject-61" class="animable" style="transform-origin: 247.258px 49.6733px;"><g id="freepik--clouds--inject-61" class="animable" style="transform-origin: 247.258px 49.6733px;"><path id="freepik--Cloud--inject-61" d="M360.7,35.61c0-4.57,5-7.75,10.68-8.28,6.69-.63,11.43,2.35,11.59,7.61,4.37-1.79,9-.64,8.63,4.16,1.14-1.31,5.39-1.27,6.92-.9a6,6,0,0,1,3.81,3.24,4.42,4.42,0,0,1,.39,2.46c2.55-.83,8.35-1.34,9.79,1,2.58,4.16-7.72,4.29-9.8,3-.44,3.23-11.52,3.77-14.2.78-2.09,2.11-5.1,2.57-8.35,2.77-5.48.32-8.84-1.53-13.12-3.72-4.64,3.94-12.69,4-16.87-.49-1.07,1-4,1.32-6.37.76-1.55-.37-1.91-1-1.91-1a13.5,13.5,0,0,1-2.84.85c-3,.64-8.69,0-6.32-2.77.8-.93,3.76-1.52,5-1.24,1.32-2.6,6.64-5.07,9.69-2.87.12-3.16,3-5.63,7.07-6.25C355.88,34.5,359.14,34.32,360.7,35.61Z" style="fill: rgb(245, 245, 245); transform-origin: 372.544px 39.3664px;" class="animable"></path><path id="freepik--cloud--inject-61" d="M161.08,32.78c0-3.69-4-6.25-8.61-6.68-5.38-.5-9.2,1.9-9.33,6.14-3.52-1.45-7.24-.52-7,3.35-.91-1.05-4.34-1-5.57-.73a4.82,4.82,0,0,0-3.07,2.61,3.66,3.66,0,0,0-.32,2c-2-.68-6.72-1.09-7.89.8-2.08,3.35,6.23,3.45,7.9,2.44.36,2.61,9.28,3,11.44.63,1.69,1.7,4.12,2.08,6.73,2.23,4.42.26,7.13-1.23,10.57-3,3.75,3.17,10.23,3.23,13.6-.4.86.81,3.23,1.06,5.13.61,1.25-.3,1.54-.83,1.54-.83a10.6,10.6,0,0,0,2.29.69c2.45.51,7,0,5.09-2.23-.65-.76-3-1.23-4-1-1.07-2.1-5.36-4.09-7.82-2.31-.09-2.55-2.42-4.54-5.69-5.05C165,31.89,162.34,31.74,161.08,32.78Z" style="fill: rgb(245, 245, 245); transform-origin: 151.497px 35.8171px;" class="animable"></path><path id="freepik--cloud--inject-61" d="M448.75,58.26c0-3.69-4-6.25-8.61-6.68-5.39-.51-9.21,1.9-9.34,6.14-3.52-1.45-7.23-.52-6.95,3.35-.92-1.06-4.35-1-5.58-.73A4.82,4.82,0,0,0,415.2,63a3.64,3.64,0,0,0-.32,2c-2.05-.67-6.72-1.08-7.89.8-2.08,3.36,6.23,3.46,7.9,2.45.36,2.61,9.28,3,11.45.63,1.68,1.7,4.11,2.07,6.73,2.23a18.57,18.57,0,0,0,10.68-2c3.75,3.17,10.89,2.53,13.23-.59.86.81,3.23,1.06,5.13.61,1.25-.3,1.54-.83,1.54-.83a11.19,11.19,0,0,0,2.29.69c2.45.51,7.26-.82,5.34-3-.65-.75-3-1.22-4-1-1.07-2.1-5.35-4.09-7.81-2.32-.1-2.54-2.43-4.53-5.7-5C452.63,57.36,450,57.22,448.75,58.26Z" style="fill: rgb(245, 245, 245); transform-origin: 439.19px 61.3692px;" class="animable"></path><path id="freepik--cloud--inject-61" d="M112.89,64.48a10.73,10.73,0,0,0-3.56-.59c-1.16-.06-1.53-.28-1.75-.53a8.5,8.5,0,0,0-10.25-2.81,6.51,6.51,0,0,0-7.77-4.19c.06-3.58-4.59-7.34-8.71-8.14-4-.76-7.39-.34-9.58,2.3-2.5-4.65-12-5.79-17-3.21-2.91,1.49-5.37,3-6.53,5.72a11.22,11.22,0,0,0-1,5.37c-2-1.71-6-2.11-8.65-1-2.85,1.16-3,3.33-3.12,5.53a10.07,10.07,0,0,0-5.22,0c-1.79.58-2.8,2-2.53,3.15-1.43,0-4.81,1.17-4.39,2.67.47,1.69,4.35,1.44,5.8,1.36a27,27,0,0,0,4-.72,6.16,6.16,0,0,0,2.12.36c2.47-.07,3.5-1.15,3.88-2.08,1.26,2.52,5.59,4.37,8.64,5.09,5.75,1.35,13.83.3,17.27-4a6.32,6.32,0,0,0,1.74,2,9.92,9.92,0,0,0,5.33,2c2.36.17,8.67.35,10.37-3.42,1.31,2.46,6.94,3.48,11.2,2.79A17.63,17.63,0,0,0,98,70.6a26.59,26.59,0,0,0,2.71-1.7,2.28,2.28,0,0,1,2.34-.2c2.95.82,6.35,1.12,9.32-.2C114.69,67.46,115.15,65.45,112.89,64.48Z" style="fill: rgb(245, 245, 245); transform-origin: 68.5806px 59.6355px;" class="animable"></path></g></g><g id="freepik--Shadow--inject-61" class="animable" style="transform-origin: 242.564px 329.379px;"><g id="freepik--shadow--inject-61"><path d="M244.18,410.1,202.47,386c-3.17-1.84-8-2-10.72-.45l-33.19,19.13c-2.75,1.59-2.41,4.36.77,6.19L201,435c3.17,1.83,8,2,10.72.44L245,416.29C247.7,414.71,247.36,411.93,244.18,410.1ZM53,349.47l41.71,24.09c3.18,1.84,8,2,10.73.45l33.19-19.13c2.75-1.59,2.4-4.36-.77-6.19l-41.71-24.1c-3.18-1.83-8-2-10.73-.44L52.2,343.28C49.45,344.86,49.8,347.64,53,349.47Zm390.32-53-23.88-13.79,20.83-12-75.45-43.56-24.23,14,35,20.2-13.18,7.61a55.93,55.93,0,0,1-11,4.62l-34.79-20.09,21.12-12.18c2.75-1.59,2.41-4.36-.77-6.19L295.22,211c-3.17-1.83-8-2-10.72-.44l-33.19,19.13c-2.75,1.59-2.41,4.36.77,6.19l35,20.21a16.7,16.7,0,0,0-1.08,5.64,8.41,8.41,0,0,0,.95,4.17l-66.25,38.24c-11.41,6.59-19.35,14.27-17.74,17.16.86,1.54,1.85,3.33,2.92,5.23,3.22,5.78-3.74,8.81-11.22,13.14l-13.54,7.85a536.29,536.29,0,0,0-58,38.32l-32.5,25.14-7.06-4.08c-1.31-.75-1.46-1.9-.32-2.55s1-1.8-.32-2.56L51.31,383.52l-12.1,7,31.52,18.2c1.31.76,1.46,1.91.32,2.56h0c-1.14.66-1,1.8.32,2.56l29.19,16.85a4.93,4.93,0,0,0,4.43.19h0a4.9,4.9,0,0,1,4.43.18L141,449.26l12.1-7-31.56-18.22a4.9,4.9,0,0,0-4.43-.18,4.93,4.93,0,0,1-4.43-.19l-6.92-4c12.9-8.65,56.57-28.52,72.58-35.17a400.31,400.31,0,0,1,45.48-16c14.39-4.38,32.63-7.19,42.73-5.95,5.28.65,8.17,1.28,10.85,1.69,10.89,1.68,18.31-3.66,29.72-10.25l66.36-38.31-.24-.14a8.63,8.63,0,0,0,3.83-1.25,16.85,16.85,0,0,0,4.36-3.76l18.73,10.82c3.18,1.83,8,2,10.73.44l33.19-19.13C446.81,301.07,446.46,298.3,443.29,296.46ZM292.85,280.08l-11.35,4.39L299.62,274l5.33,3.08A60.61,60.61,0,0,0,292.85,280.08ZM341,318.93l7.65-6.58a22.79,22.79,0,0,0,5.38-6.92l5.17,3Zm49.86-47-21.13,12.19-9.44-5.46a31,31,0,0,1,7.8-6.48l13.17-7.6,11.49,6.63A8,8,0,0,0,390.85,271.92Z" style="opacity: 0.2; transform-origin: 242.564px 329.379px;" class="animable"></path></g></g><g id="freepik--Car--inject-61" class="animable animator-active" style="transform-origin: 242.795px 286.184px;"><g id="freepik--Vehicle--inject-61" class="animable" style="transform-origin: 242.795px 303.06px;"><path d="M307,192.84c3.41,2,5.51,6.19,5.51,12.2,0,12-8.43,26.61-18.83,32.61-5.2,3-9.9,3.29-13.31,1.32l-12-6.93c-3.4-2-5.51-6.19-5.51-12.19,0-12,8.43-26.61,18.83-32.62,5.2-3,9.9-3.28,13.31-1.32Z" style="fill: rgb(69, 90, 100); transform-origin: 287.685px 212.442px;" id="elwrau5lp3xq" class="animable"></path><path d="M293.71,237.65c-5.2,3-9.9,3.29-13.31,1.32s-5.52-6.19-5.52-12.19c0-12,8.44-26.61,18.84-32.62,5.19-3,9.9-3.28,13.31-1.32s5.51,6.19,5.51,12.19C312.54,217,304.11,231.65,293.71,237.65Z" style="fill: rgb(38, 50, 56); transform-origin: 293.71px 215.907px;" id="el4z83c1y9ueg" class="animable"></path><path d="M321.15,201c3.41,2,5.52,6.19,5.52,12.19,0,12-8.43,26.61-18.83,32.61-5.2,3-9.91,3.29-13.32,1.32l-12-6.93c-3.4-2-5.51-6.19-5.51-12.19,0-12,8.43-26.61,18.83-32.61,5.2-3,9.91-3.29,13.31-1.32Z" style="fill: rgb(69, 90, 100); transform-origin: 301.84px 220.595px;" id="elsq5cumm8t9f" class="animable"></path><path d="M307.84,245.79c-5.2,3-9.91,3.29-13.32,1.32S289,240.93,289,234.92c0-12,8.43-26.61,18.83-32.61,5.2-3,9.9-3.29,13.31-1.32s5.52,6.19,5.52,12.19C326.67,225.19,318.24,239.79,307.84,245.79Z" style="fill: rgb(55, 71, 79); transform-origin: 307.83px 224.05px;" id="ely2p6q36n2k" class="animable"></path><path d="M307.84,234.59c-2.52,1.46-4.81,1.59-6.46.64s-2.67-3-2.67-5.91c0-5.82,4.09-12.9,9.13-15.81,2.52-1.45,4.8-1.59,6.45-.64s2.67,3,2.67,5.91C317,224.6,312.88,231.68,307.84,234.59Z" style="fill: rgb(38, 50, 56); transform-origin: 307.835px 224.052px;" id="eljoiglfpyptb" class="animable"></path><path d="M311,215.55a9.4,9.4,0,0,0-.49-3.11,9.34,9.34,0,0,0-2.63,1.07c-5,2.91-9.13,10-9.13,15.81a9.35,9.35,0,0,0,.49,3.11,9.34,9.34,0,0,0,2.63-1.07C306.87,228.45,311,221.37,311,215.55Z" style="fill: rgb(224, 224, 224); transform-origin: 304.875px 222.435px;" id="elagq1b2jzl4" class="animable"></path><path d="M398.36,261.7c1.69,1,2.73,3.06,2.73,6,0,5.93-4.17,13.14-9.3,16.11-2.57,1.48-4.9,1.63-6.58.65l-81.78-47.22c-1.68-1-2.72-3.06-2.72-6,0-5.93,4.16-13.15,9.3-16.11,2.57-1.49,4.9-1.63,6.58-.65Z" style="fill: rgb(38, 50, 56); transform-origin: 350.9px 249.468px;" id="eleit951y7d5a" class="animable"></path><path d="M391.78,283.84c-2.56,1.48-4.89,1.63-6.57.65s-2.73-3.05-2.73-6c0-5.93,4.17-13.15,9.31-16.12,2.56-1.48,4.89-1.62,6.57-.65s2.73,3.06,2.73,6C401.09,273.66,396.92,280.87,391.78,283.84Z" style="fill: rgb(69, 90, 100); transform-origin: 391.785px 273.107px;" id="el99ki2mmck7c" class="animable"></path><path d="M106.56,311.17c3.41,2,5.52,6.19,5.52,12.19,0,12-8.43,26.61-18.83,32.62-5.2,3-9.91,3.29-13.32,1.32-2.06-1.2-9.93-5.74-12-6.93-3.41-2-5.52-6.19-5.52-12.2,0-12,8.43-26.61,18.83-32.61,5.2-3,9.91-3.29,13.32-1.32Z" style="fill: rgb(69, 90, 100); transform-origin: 87.245px 330.77px;" id="elv6f3o2hw24" class="animable"></path><path d="M93.25,356c-5.2,3-9.91,3.28-13.32,1.32s-5.51-6.19-5.51-12.19c0-12,8.43-26.61,18.83-32.62,5.2-3,9.91-3.28,13.31-1.32s5.52,6.19,5.52,12.19C112.08,335.37,103.65,350,93.25,356Z" style="fill: rgb(38, 50, 56); transform-origin: 93.25px 334.255px;" id="el75gxacy9grx" class="animable"></path><path d="M120.69,319.32c3.4,2,5.51,6.18,5.51,12.19,0,12-8.43,26.61-18.83,32.61-5.2,3-9.91,3.29-13.31,1.32l-12-6.93c-3.41-2-5.51-6.19-5.52-12.19,0-12,8.44-26.61,18.84-32.62,5.2-3,9.9-3.28,13.31-1.31Z" style="fill: rgb(69, 90, 100); transform-origin: 101.37px 338.913px;" id="elhu4vxwqb7yp" class="animable"></path><path d="M107.37,364.12c-5.2,3-9.91,3.29-13.31,1.32s-5.52-6.18-5.52-12.19c0-12,8.43-26.61,18.83-32.61,5.2-3,9.91-3.29,13.32-1.32s5.51,6.18,5.51,12.19C126.2,343.52,117.77,358.12,107.37,364.12Z" style="fill: rgb(55, 71, 79); transform-origin: 107.37px 342.38px;" id="elyn6361twhm9" class="animable"></path><path d="M107.37,352.92c-2.52,1.46-4.8,1.59-6.45.64s-2.68-3-2.68-5.91c0-5.82,4.09-12.9,9.13-15.81,2.52-1.46,4.8-1.59,6.46-.64s2.67,3,2.67,5.91C116.5,342.93,112.41,350,107.37,352.92Z" style="fill: rgb(38, 50, 56); transform-origin: 107.37px 342.38px;" id="el16fawxf9u9bh" class="animable"></path><path d="M110.5,333.88a9.09,9.09,0,0,0-.5-3.11,9.59,9.59,0,0,0-2.63,1.07c-5,2.91-9.13,10-9.13,15.81a9.13,9.13,0,0,0,.5,3.11,9.59,9.59,0,0,0,2.63-1.07C106.41,346.78,110.5,339.7,110.5,333.88Z" style="fill: rgb(224, 224, 224); transform-origin: 104.37px 340.765px;" id="elk904hokqiqa" class="animable"></path><path d="M139.31,365.2a2.67,2.67,0,0,1-1.2,2.1.86.86,0,0,1-.86.08c-.1,0-22.17-12.8-33.56-19.37l-5.18-3a18,18,0,0,1,1-3.38l6.6,3.81c11.56,6.67,32.77,18.93,32.86,19A.85.85,0,0,1,139.31,365.2Z" style="fill: rgb(38, 50, 56); transform-origin: 118.912px 354.545px;" id="elurav0yggltq" class="animable"></path><path d="M139.31,365.2a.74.74,0,0,0-1.21-.7,2.69,2.69,0,0,0-1.21,2.1.86.86,0,0,0,.35.79.88.88,0,0,0,.86-.09A2.66,2.66,0,0,0,139.31,365.2Z" style="fill: rgb(69, 90, 100); transform-origin: 138.104px 365.892px;" id="el2zlnyjnsej" class="animable"></path><path d="M146.66,361.19a.84.84,0,0,0,.86-.09,2.65,2.65,0,0,0,1.21-2.09.86.86,0,0,0-.36-.79L108.18,335a.89.89,0,0,0-.86.09,2.67,2.67,0,0,0-1.21,2.1.86.86,0,0,0,.35.78Z" style="fill: rgb(38, 50, 56); transform-origin: 127.42px 348.099px;" id="el1q1812ixqtv" class="animable"></path><path d="M148.73,359a.86.86,0,0,0-.36-.79.82.82,0,0,0-.85.09,2.65,2.65,0,0,0-1.21,2.09.86.86,0,0,0,.35.79.84.84,0,0,0,.86-.09A2.65,2.65,0,0,0,148.73,359Z" style="fill: rgb(69, 90, 100); transform-origin: 147.52px 359.695px;" id="elldg51aw3dja" class="animable"></path><path d="M159.3,340a.88.88,0,0,0,.73-.46,2.68,2.68,0,0,0,.14-2.42.84.84,0,0,0-.66-.54l-46.33-2.8a.84.84,0,0,0-.73.46,2.68,2.68,0,0,0-.15,2.42.87.87,0,0,0,.67.54Z" style="fill: rgb(38, 50, 56); transform-origin: 136.237px 336.89px;" id="elcixtwiykw78" class="animable"></path><path d="M160.17,337.1a.84.84,0,0,0-.66-.54.82.82,0,0,0-.73.46,2.68,2.68,0,0,0-.15,2.42.87.87,0,0,0,.67.54.88.88,0,0,0,.73-.46A2.68,2.68,0,0,0,160.17,337.1Z" style="fill: rgb(69, 90, 100); transform-origin: 159.402px 338.27px;" id="el33s7rm2f2kk" class="animable"></path><polygon points="63.19 347.62 43.81 364.41 43.81 375.6 45.38 376.51 64.76 365.32 64.76 348.53 63.19 347.62" style="fill: rgb(0, 78, 204); transform-origin: 54.285px 362.065px;" id="el5ityx51nwvo" class="animable"></polygon><polygon points="45.38 376.51 45.38 365.32 64.76 348.53 64.76 365.32 45.38 376.51" style="fill: rgb(0, 78, 204); transform-origin: 55.07px 362.52px;" id="elvctsmk53wls" class="animable"></polygon><g id="elfb7nu8u1c18"><polygon points="45.38 365.32 43.81 364.41 63.19 347.62 64.76 348.53 45.38 365.32" style="fill: rgb(255, 255, 255); opacity: 0.2; transform-origin: 54.285px 356.47px;" class="animable"></polygon></g><g id="ellnvc6ui30f"><polygon points="45.38 376.51 45.38 365.32 43.81 364.41 43.81 375.6 45.38 376.51" style="opacity: 0.2; transform-origin: 44.595px 370.46px;" class="animable"></polygon></g><path d="M159.25,422.94l-31.56-18.22a4.93,4.93,0,0,0-4.43-.19,4.93,4.93,0,0,1-4.43-.18L89.71,387.54a1.14,1.14,0,0,0,.41-.88c0-.49,0-2.4,0-2.82A1.82,1.82,0,0,0,89,382.4L57.48,364.18l-12.1,7V374l31.49,18.18a1.18,1.18,0,0,0-.42.85c0,.5,0,2.42,0,2.83a1.83,1.83,0,0,0,1.09,1.46l29.18,16.85a4.9,4.9,0,0,0,4.43.18h0a5,5,0,0,1,4.44.19l31.56,18.22,12.1-7Z" style="fill: rgb(55, 71, 79); transform-origin: 102.315px 398.47px;" id="elmjk256hxd1" class="animable"></path><path d="M45.38,371.17V374l31.49,18.18a1.18,1.18,0,0,0-.42.85c0,.5,0,2.42,0,2.83a1.83,1.83,0,0,0,1.09,1.46l29.18,16.85a4.9,4.9,0,0,0,4.43.18h0a5,5,0,0,1,4.44.19l31.56,18.22v-2.84Z" id="el76ijaafff37" class="animable" style="transform-origin: 96.265px 401.965px;"></path><path d="M89,382.4,57.48,364.18l-12.1,7,31.52,18.2c1.31.76,1.45,1.9.32,2.56h0c-1.14.65-1,1.8.32,2.55l29.18,16.86a5,5,0,0,0,4.43.18h0a5,5,0,0,1,4.44.18l31.56,18.22,12.1-7-31.56-18.22a4.93,4.93,0,0,0-4.43-.19h0a4.9,4.9,0,0,1-4.43-.18L89.68,387.52c-1.32-.76-1.46-1.9-.32-2.56h0C90.49,384.3,90.35,383.16,89,382.4Z" style="fill: rgb(69, 90, 100); transform-origin: 102.315px 397.055px;" id="elt7944ak4vp7" class="animable"></path><path d="M363.93,225.53c-8.56,4.94-23.5,8.54-33.37,8l-24.82,1.6L302,236.61v-6.44l-13.42-7.75-66.35,38.31c-10.45,6-18,13-17.93,16.31,0,0,0,14.74,0,14.74a2.13,2.13,0,0,0,.21.85c.5.88,1,1.86,1.61,2.88a19.45,19.45,0,0,1-6.39,5.92l-13.54,7.85c-15,8.67-42.72,30.48-62,48.72L89.21,391v5.2l14.53,8.39S184.31,371.17,212,360.88s47.85-13.31,57.85-11.45c3.3.62,6.39,1.22,9.06,1.69a26.77,26.77,0,0,0,15.63-1.83c6.6-2.8,13.95-8.3,21.25-14.22l59.2-48V272.31l-13.42-7.75-3.73,2.16v-4.31s-.71-4.7-1.59-10.49,5.36-14.49,13.92-19.43l17.71-10.23v-4L382.2,215Z" style="fill: rgb(0, 78, 204); transform-origin: 238.545px 309.795px;" id="elgirk3cvy9y4" class="animable"></path><g id="el0nyidb5w1c8"><path d="M363.93,225.53c-8.56,4.94-23.5,8.54-33.37,8l-24.82,1.6L302,236.61v-6.44l-13.42-7.75-66.35,38.31c-10.45,6-18,13-17.93,16.31,0,0,0,14.74,0,14.74a2.13,2.13,0,0,0,.21.85c.5.88,1,1.86,1.61,2.88a19.45,19.45,0,0,1-6.39,5.92l-13.54,7.85c-15,8.67-42.72,30.48-62,48.72L89.21,391v5.2l14.53,8.39S184.31,371.17,212,360.88s47.85-13.31,57.85-11.45c3.3.62,6.39,1.22,9.06,1.69a26.77,26.77,0,0,0,15.63-1.83c6.6-2.8,13.95-8.3,21.25-14.22l59.2-48V272.31l-13.42-7.75-3.73,2.16v-4.31s-.71-4.7-1.59-10.49,5.36-14.49,13.92-19.43l17.71-10.23v-4L382.2,215Z" style="opacity: 0.2; transform-origin: 238.545px 309.795px;" class="animable"></path></g><g id="el6mnewze1n47"><polygon points="103.74 399.41 103.74 404.61 89.21 396.22 89.21 391.02 103.74 399.41" style="opacity: 0.2; transform-origin: 96.475px 397.815px;" class="animable"></polygon></g><path d="M356.92,256.24c-.28-1.81-.6-3.91-.94-6.16-1-6.8,5.08-16.33,13.64-21.27l18.27-10.55L382.2,215l-18.27,10.55c-8.56,4.94-23.5,8.54-33.37,8L318.15,233a68.54,68.54,0,0,0-23.76,3.77l-11.34,4.39L302,230.17l-13.42-7.75-66.35,38.31c-11.41,6.59-19.36,14.27-17.75,17.16l2.92,5.23c3.22,5.78-.23,14-7.7,18.31l-13.54,7.85c-15,8.67-42.72,30.48-62,48.72L89.21,391l14.53,8.39s58.4-39.31,76.13-49.34a345.45,345.45,0,0,1,45.5-21.8c11.25-4.23,32.61-10.33,42.71-9.09,5.28.65,8.16,1.27,10.84,1.69,10.9,1.68,18.31-3.66,29.73-10.25L375,272.31l-13.42-7.75-19.05,11,7.66-6.58C354.42,265.35,357.43,259.65,356.92,256.24Z" style="fill: rgb(0, 78, 204); transform-origin: 238.55px 307.195px;" id="elja9ecjcewe" class="animable"></path><polygon points="268.04 327.37 268.04 341.36 279.69 343.44 279.69 329.45 268.04 327.37" style="fill: rgb(55, 71, 79); transform-origin: 273.865px 335.405px;" id="eler646rcyb6d" class="animable"></polygon><polygon points="271.78 339.2 279.69 340.62 279.69 329.45 271.78 328.04 271.78 339.2" style="fill: rgb(38, 50, 56); transform-origin: 275.735px 334.33px;" id="el1evo5mwtdfaj" class="animable"></polygon><polygon points="268.04 341.36 271.78 339.2 279.69 340.62 279.69 343.44 268.04 341.36" style="fill: rgb(69, 90, 100); transform-origin: 273.865px 341.32px;" id="elofxsskeexmp" class="animable"></polygon><path d="M243.9,280.42l-23.62,16.16c-8.15,5.58-10.43,12.61-5.07,15.7S232.1,314.36,241,310L271.82,295c8.88-4.34,9.53-11.62,1.46-16.25S252.05,274.84,243.9,280.42Z" id="elr7sqh8jk8a" class="animable" style="transform-origin: 245.62px 294.886px;"></path><path d="M223,288.79l48.46-28-2.91-1.69s-11.47,1.06-19.39,5.6-8.31,8.8-15.19,13.34c-5.65,3.72-13.89,9-13.89,9Z" style="fill: rgb(0, 78, 204); transform-origin: 245.77px 273.945px;" id="elcgfftell6te" class="animable"></path><g id="elqav5hycwpi"><path d="M223,288.79l48.46-28-2.91-1.69s-11.47,1.06-19.39,5.6-8.31,8.8-15.19,13.34c-5.65,3.72-13.89,9-13.89,9Z" style="fill: rgb(255, 255, 255); opacity: 0.1; transform-origin: 245.77px 273.945px;" class="animable"></path></g><path d="M252.05,266.4c-7.92,4.54-8.31,8.8-15.19,13.34-5.66,3.73-13.89,9.05-13.89,9.05l48.46-28S260,261.87,252.05,266.4Z" style="fill: rgb(0, 78, 204); transform-origin: 247.2px 274.79px;" id="elp30u1dw5y7" class="animable"></path><g id="el5mghz4a559n"><path d="M252.05,266.4c-7.92,4.54-8.31,8.8-15.19,13.34-5.66,3.73-13.89,9.05-13.89,9.05l48.46-28S260,261.87,252.05,266.4Z" style="opacity: 0.2; transform-origin: 247.2px 274.79px;" class="animable"></path></g><path d="M342.26,245.74a.82.82,0,0,1-.36-.59c0-.14,0-.29,0-.4a5.81,5.81,0,0,0-2.38-3.88,2,2,0,0,0-.93-.28h0L278,241.2v28.9l21.35,12.43,43.25-36.6Z" style="fill: rgb(0, 78, 204); transform-origin: 310.3px 261.56px;" id="el77338r8ynxe" class="animable"></path><g id="elcr9ssj2rjvf"><path d="M278,246.51l5.87,4.56,56.67-9.26a4,4,0,0,0-1-.94,2,2,0,0,0-.93-.28h0L278,241.2Z" style="fill: rgb(255, 255, 255); opacity: 0.1; transform-origin: 309.27px 245.83px;" class="animable"></path></g><g id="elyxjzbg0qic"><path d="M342.59,245.93l-43.25,36.59-6.5-3.78.22-11.74,48.48-23.42a5.47,5.47,0,0,1,.31,1.17,2.3,2.3,0,0,1,0,.4.82.82,0,0,0,.36.59Z" style="opacity: 0.1; transform-origin: 317.715px 263.05px;" class="animable"></path></g><path d="M295.64,276.14v-9.31c0-9.3-5.65-20.09-12.62-24.12s-12.62.25-12.62,9.54v9.3h0c0,2.64-1.41,3.45-3.7,2.12l32.64,18.87A7.39,7.39,0,0,1,295.64,276.14Z" style="fill: rgb(0, 78, 204); transform-origin: 283.02px 261.867px;" id="eld04j2l07p9g" class="animable"></path><g id="elns3u7eebish"><path d="M295.64,276.14v-9.31c0-9.3-5.65-20.09-12.62-24.12s-12.62.25-12.62,9.54v9.3h0c0,2.64-1.41,3.45-3.7,2.12l32.64,18.87A7.39,7.39,0,0,1,295.64,276.14Z" style="fill: rgb(255, 255, 255); opacity: 0.2; transform-origin: 283.02px 261.867px;" class="animable"></path></g><path d="M278.92,286a19,19,0,0,0-16.73-18.51,3.71,3.71,0,0,0-.44-.05l-.53,0a9.69,9.69,0,0,0-10.09,9.69v28l1.88-.92,18.8-9.19a19.48,19.48,0,0,0,2-1.14,14.2,14.2,0,0,0,2.65-2.11v0a7.63,7.63,0,0,0,2.44-5.25v-.08A2.61,2.61,0,0,0,278.92,286Z" style="fill: rgb(38, 50, 56); transform-origin: 265.026px 286.281px;" id="elfuo4vb6duvq" class="animable"></path><path d="M276.5,286.91a20.77,20.77,0,0,0-10.38-18l-.47-.27a9.68,9.68,0,0,0-14.52,8.39h0v28L271.82,295a16.56,16.56,0,0,0,4.66-3.26h0Z" style="fill: rgb(0, 78, 204); transform-origin: 263.815px 286.187px;" id="ela37i1a09ztp" class="animable"></path><g id="elvzgtp59z3p"><path d="M266.12,268.93l-.47-.27a9.68,9.68,0,0,0-14.52,8.39v28L271.82,295a16.56,16.56,0,0,0,4.66-3.26h0v-4.8A20.77,20.77,0,0,0,266.12,268.93Z" style="fill: rgb(255, 255, 255); opacity: 0.2; transform-origin: 263.805px 286.207px;" class="animable"></path></g><g id="elgqw6ms3wtt9"><path d="M264.92,271l-.46-.26a7.21,7.21,0,0,0-3.64-1,7.34,7.34,0,0,0-7.31,7.32V303.9L271.82,295a18.92,18.92,0,0,0,2.29-1.33v-6.72A18.44,18.44,0,0,0,264.92,271Z" style="fill: rgb(255, 255, 255); opacity: 0.2; transform-origin: 263.81px 286.82px;" class="animable"></path></g><path d="M258.82,309.48l48.47-28-2.92-1.69s-11.47,1.06-19.38,5.6-8.31,8.8-15.19,13.34c-5.66,3.72-13.89,9-13.89,9Z" style="fill: rgb(0, 78, 204); transform-origin: 281.6px 294.635px;" id="elhfsl8uzd7r" class="animable"></path><g id="elbvqlb8qe5w"><path d="M258.82,309.48l48.47-28-2.92-1.69s-11.47,1.06-19.38,5.6-8.31,8.8-15.19,13.34c-5.66,3.72-13.89,9-13.89,9Z" style="fill: rgb(255, 255, 255); opacity: 0.1; transform-origin: 281.6px 294.635px;" class="animable"></path></g><path d="M287.9,287.1c-7.92,4.54-8.31,8.8-15.19,13.34-5.65,3.73-13.89,9-13.89,9l48.47-28S295.82,282.56,287.9,287.1Z" style="fill: rgb(0, 78, 204); transform-origin: 283.055px 295.44px;" id="els9aakk8hnk" class="animable"></path><g id="elk3liimqs8bc"><path d="M287.9,287.1c-7.92,4.54-8.31,8.8-15.19,13.34-5.65,3.73-13.89,9-13.89,9l48.47-28S295.82,282.56,287.9,287.1Z" style="opacity: 0.2; transform-origin: 283.055px 295.44px;" class="animable"></path></g><polygon points="366.33 211.23 366.33 172.06 364.24 170.85 340.01 184.84 340.01 207.23 354.55 215.62 354.55 215.62 356.64 216.83 366.33 211.23" style="fill: rgb(0, 78, 204); transform-origin: 353.17px 193.84px;" id="elyo0u0bgxiwb" class="animable"></polygon><polygon points="366.33 172.06 342.1 186.05 342.1 208.43 356.64 216.83 366.33 211.23 366.33 172.06" style="fill: rgb(0, 78, 204); transform-origin: 354.215px 194.445px;" id="elowi2edwy6x" class="animable"></polygon><g id="elr4q7f0782jo"><polygon points="342.1 186.05 340.01 184.84 364.24 170.85 366.33 172.06 342.1 186.05" style="fill: rgb(255, 255, 255); opacity: 0.3; transform-origin: 353.17px 178.45px;" class="animable"></polygon></g><g id="elhgu4lkz3akm"><polygon points="340.01 207.23 342.1 208.43 342.1 186.05 340.01 184.84 340.01 207.23" style="opacity: 0.3; transform-origin: 341.055px 196.635px;" class="animable"></polygon></g><polygon points="441.78 227.28 366.33 183.73 342.1 197.72 342.1 200.43 417.55 243.99 441.78 230 441.78 227.28" style="fill: rgb(0, 78, 204); transform-origin: 391.94px 213.86px;" id="elkfj3s53gdze" class="animable"></polygon><polygon points="342.1 197.72 366.33 183.73 441.78 227.28 417.55 241.27 342.1 197.72" style="fill: rgb(0, 78, 204); transform-origin: 391.94px 212.5px;" id="elj6pgwlszkql" class="animable"></polygon><g id="elnujpp93lx4"><polygon points="342.1 197.72 366.33 183.73 441.78 227.28 417.55 241.27 342.1 197.72" style="fill: rgb(255, 255, 255); opacity: 0.3; transform-origin: 391.94px 212.5px;" class="animable"></polygon></g><g id="eloz9klfgeje"><polygon points="417.55 243.99 417.55 241.27 342.1 197.72 342.1 200.43 417.55 243.99" style="opacity: 0.3; transform-origin: 379.825px 220.855px;" class="animable"></polygon></g><polygon points="366.33 172.06 356.64 189.32 430 231.67 439.69 214.41 366.33 172.06" style="fill: rgb(240, 240, 240); transform-origin: 398.165px 201.865px;" id="elpwp2h20m0l8" class="animable"></polygon><polygon points="441.78 254.79 441.78 215.62 439.69 214.41 415.46 228.4 415.46 250.79 430 259.18 430 259.18 432.09 260.39 441.78 254.79" style="fill: rgb(0, 78, 204); transform-origin: 428.62px 237.4px;" id="el0r5eanbm5w6l" class="animable"></polygon><polygon points="441.78 215.62 417.55 229.61 417.55 251.99 432.09 260.39 441.78 254.79 441.78 215.62" style="fill: rgb(0, 78, 204); transform-origin: 429.665px 238.005px;" id="el64o29wpiqbw" class="animable"></polygon><g id="eljj6bdo6y0d"><polygon points="417.55 229.61 415.46 228.4 439.69 214.41 441.78 215.62 417.55 229.61" style="fill: rgb(255, 255, 255); opacity: 0.3; transform-origin: 428.62px 222.01px;" class="animable"></polygon></g><g id="elfpvcplkb47"><polygon points="415.46 250.79 417.55 251.99 417.55 229.61 415.46 228.4 415.46 250.79" style="opacity: 0.3; transform-origin: 416.505px 240.195px;" class="animable"></polygon></g><polygon points="153.42 403.48 137.97 418 137.97 426.54 139.54 427.45 154.99 418.53 154.99 404.39 153.42 403.48" style="fill: rgb(0, 78, 204); transform-origin: 146.48px 415.465px;" id="elcsrgnpnxqde" class="animable"></polygon><polygon points="139.54 427.45 139.54 418.9 154.99 404.39 154.99 418.53 139.54 427.45" style="fill: rgb(0, 78, 204); transform-origin: 147.265px 415.92px;" id="el130lo6ys8dm" class="animable"></polygon><g id="elx12887hp72h"><polygon points="139.54 418.9 137.97 418 153.42 403.48 154.99 404.39 139.54 418.9" style="fill: rgb(255, 255, 255); opacity: 0.2; transform-origin: 146.48px 411.19px;" class="animable"></polygon></g><g id="elsiutm5ydqi"><polygon points="139.54 427.45 139.54 418.9 137.97 418 137.97 426.54 139.54 427.45" style="opacity: 0.2; transform-origin: 138.755px 422.725px;" class="animable"></polygon></g><polygon points="164.96 406.38 145.57 423.17 145.57 434.36 147.14 435.27 166.53 424.07 166.53 407.29 164.96 406.38" style="fill: rgb(0, 78, 204); transform-origin: 156.05px 420.825px;" id="el9r3sasc2749" class="animable"></polygon><polygon points="147.14 435.27 147.14 424.08 166.53 407.29 166.53 424.07 147.14 435.27" style="fill: rgb(0, 78, 204); transform-origin: 156.835px 421.28px;" id="el4m2rp2dh8sd" class="animable"></polygon><g id="elhartcjg42vg"><polygon points="147.14 424.08 145.57 423.17 164.96 406.38 166.53 407.29 147.14 424.08" style="fill: rgb(255, 255, 255); opacity: 0.2; transform-origin: 156.05px 415.23px;" class="animable"></polygon></g><g id="elb6on14ay7yo"><polygon points="147.14 435.27 147.14 424.08 145.57 423.17 145.57 434.36 147.14 435.27" style="opacity: 0.2; transform-origin: 146.355px 429.22px;" class="animable"></polygon></g><polygon points="66.77 353.76 51.32 368.28 51.32 376.82 52.89 377.73 68.34 368.81 68.34 354.67 66.77 353.76" style="fill: rgb(0, 78, 204); transform-origin: 59.83px 365.745px;" id="elci0rhrk2rji" class="animable"></polygon><polygon points="52.89 377.73 52.89 369.19 68.34 354.67 68.34 368.81 52.89 377.73" style="fill: rgb(0, 78, 204); transform-origin: 60.615px 366.2px;" id="elk6ewqlqrvqb" class="animable"></polygon><g id="eli9tff1o91ji"><polygon points="52.89 369.19 51.32 368.28 66.77 353.76 68.34 354.67 52.89 369.19" style="fill: rgb(255, 255, 255); opacity: 0.2; transform-origin: 59.83px 361.475px;" class="animable"></polygon></g><g id="elh4qneefwg1o"><polygon points="52.89 377.73 52.89 369.19 51.32 368.28 51.32 376.82 52.89 377.73" style="opacity: 0.2; transform-origin: 52.105px 373.005px;" class="animable"></polygon></g><path d="M195.82,401.21a.84.84,0,0,0,.85-.08,2.69,2.69,0,0,0,1.21-2.1.86.86,0,0,0-.35-.79c-.13-.07-40.06-23.13-40.2-23.2a.84.84,0,0,0-.85.08,2.69,2.69,0,0,0-1.21,2.1.86.86,0,0,0,.35.79C155.75,378.08,195.68,401.14,195.82,401.21Z" style="fill: rgb(38, 50, 56); transform-origin: 176.575px 388.125px;" id="el3ff7sa6cyaj" class="animable"></path><path d="M197.88,399a.86.86,0,0,0-.35-.79.89.89,0,0,0-.86.09,2.69,2.69,0,0,0-1.21,2.1.74.74,0,0,0,1.21.7A2.69,2.69,0,0,0,197.88,399Z" style="fill: rgb(69, 90, 100); transform-origin: 196.666px 399.709px;" id="elwsy1btryxu" class="animable"></path><path d="M205.23,395a.85.85,0,0,0,.86-.08,2.69,2.69,0,0,0,1.21-2.1.83.83,0,0,0-.35-.78l-40.2-23.21a.85.85,0,0,0-.86.08,2.69,2.69,0,0,0-1.21,2.1.86.86,0,0,0,.36.79Z" style="fill: rgb(38, 50, 56); transform-origin: 185.991px 381.915px;" id="elnlqo5p60je" class="animable"></path><path d="M207.3,392.83a.83.83,0,0,0-.35-.78.85.85,0,0,0-.86.08,2.69,2.69,0,0,0-1.21,2.1.83.83,0,0,0,.35.78.85.85,0,0,0,.86-.08A2.69,2.69,0,0,0,207.3,392.83Z" style="fill: rgb(69, 90, 100); transform-origin: 206.09px 393.53px;" id="eljid90vv03y8" class="animable"></path><path d="M204.61,402a.85.85,0,0,0,.7.5,2.66,2.66,0,0,0,2.3-.77.88.88,0,0,0,.25-.83L193,356.9a.84.84,0,0,0-.7-.5,2.64,2.64,0,0,0-2.29.77.82.82,0,0,0-.25.82C189.79,358.14,204.56,401.82,204.61,402Z" style="fill: rgb(38, 50, 56); transform-origin: 198.808px 379.45px;" id="elvwuxvrxm39m" class="animable"></path><path d="M207.61,401.69a.74.74,0,0,0-.45-1.33,2.67,2.67,0,0,0-2.29.78.73.73,0,0,0,.44,1.32A2.66,2.66,0,0,0,207.61,401.69Z" style="fill: rgb(69, 90, 100); transform-origin: 206.237px 401.412px;" id="elkkr8kw2i1ko" class="animable"></path><path d="M212.66,372.37c3.41,2,5.52,6.19,5.52,12.19,0,12-8.43,26.61-18.83,32.62-5.2,3-9.91,3.28-13.32,1.32l-12-6.93c-3.41-2-5.52-6.19-5.52-12.2,0-12,8.43-26.61,18.83-32.61,5.2-3,9.91-3.29,13.32-1.32Z" style="fill: rgb(69, 90, 100); transform-origin: 193.345px 391.968px;" id="elndysozwwh8" class="animable"></path><path d="M199.35,417.18c-5.2,3-9.91,3.28-13.32,1.32s-5.51-6.19-5.51-12.19c0-12,8.43-26.61,18.83-32.62,5.2-3,9.91-3.28,13.31-1.32s5.52,6.19,5.52,12.19C218.18,396.57,209.75,411.17,199.35,417.18Z" style="fill: rgb(38, 50, 56); transform-origin: 199.35px 395.435px;" id="elpok4k0z74og" class="animable"></path><path d="M226.79,380.52c3.4,2,5.51,6.18,5.51,12.19,0,12-8.43,26.61-18.83,32.61-5.2,3-9.91,3.29-13.31,1.32l-12-6.93c-3.41-2-5.52-6.19-5.52-12.19,0-12,8.44-26.61,18.83-32.62,5.2-3,9.91-3.28,13.32-1.31Z" style="fill: rgb(69, 90, 100); transform-origin: 207.47px 400.113px;" id="eljml5k6iz5p" class="animable"></path><path d="M213.47,425.32c-5.2,3-9.91,3.29-13.31,1.32s-5.52-6.18-5.52-12.19c0-12,8.43-26.61,18.83-32.61,5.2-3,9.91-3.29,13.32-1.32s5.51,6.18,5.51,12.19C232.3,404.72,223.87,419.32,213.47,425.32Z" style="fill: rgb(55, 71, 79); transform-origin: 213.47px 403.58px;" id="el9di7ub2103n" class="animable"></path><path d="M213.47,414.12c-2.52,1.45-4.8,1.59-6.45.64s-2.68-3-2.68-5.91c0-5.82,4.09-12.9,9.13-15.81,2.52-1.46,4.8-1.59,6.46-.64s2.67,3,2.67,5.91C222.6,404.13,218.51,411.21,213.47,414.12Z" style="fill: rgb(38, 50, 56); transform-origin: 213.47px 403.578px;" id="elkkn8akmtkt" class="animable"></path><path d="M216.6,395.08a9.09,9.09,0,0,0-.5-3.11,9.59,9.59,0,0,0-2.63,1.07c-5,2.91-9.13,10-9.13,15.81a9.13,9.13,0,0,0,.5,3.11,9.59,9.59,0,0,0,2.63-1.07C212.51,408,216.6,400.9,216.6,395.08Z" style="fill: rgb(224, 224, 224); transform-origin: 210.47px 401.965px;" id="elugo1mxpcok" class="animable"></path><path d="M416.46,256.15c3.41,2,5.52,6.19,5.52,12.19,0,12-8.43,26.61-18.83,32.62-5.2,3-9.91,3.28-13.32,1.32l-12-6.94c-3.41-2-5.52-6.18-5.52-12.19,0-12,8.43-26.61,18.83-32.61,5.2-3,9.91-3.29,13.32-1.32C406.52,250.42,414.39,255,416.46,256.15Z" style="fill: rgb(69, 90, 100); transform-origin: 397.145px 275.748px;" id="elmkslv93jx0m" class="animable"></path><path d="M403.15,301c-5.2,3-9.91,3.28-13.32,1.32s-5.51-6.19-5.51-12.19c0-12,8.43-26.62,18.83-32.62,5.2-3,9.9-3.29,13.31-1.32s5.52,6.19,5.52,12.19C422,280.35,413.55,295,403.15,301Z" style="fill: rgb(38, 50, 56); transform-origin: 403.15px 279.253px;" id="elv9xujr4w53b" class="animable"></path><path d="M430.58,264.3c3.41,2,5.52,6.18,5.52,12.19,0,12-8.43,26.61-18.83,32.61-5.2,3-9.91,3.29-13.32,1.32l-12-6.93c-3.41-2-5.52-6.19-5.52-12.19,0-12,8.43-26.61,18.83-32.62,5.2-3,9.91-3.28,13.32-1.31C420.65,258.56,428.52,263.1,430.58,264.3Z" style="fill: rgb(69, 90, 100); transform-origin: 411.265px 283.893px;" id="eljrxqujh0ywe" class="animable"></path><path d="M417.27,309.1c-5.2,3-9.91,3.29-13.32,1.32s-5.51-6.19-5.51-12.19c0-12,8.43-26.61,18.83-32.61,5.2-3,9.91-3.29,13.31-1.32s5.52,6.18,5.52,12.19C436.1,288.5,427.67,303.1,417.27,309.1Z" style="fill: rgb(55, 71, 79); transform-origin: 417.27px 287.36px;" id="elt6b46thfjr" class="animable"></path><path d="M417.27,297.9c-2.52,1.45-4.8,1.59-6.46.64s-2.67-3-2.67-5.91c0-5.82,4.09-12.9,9.13-15.81,2.52-1.46,4.8-1.59,6.45-.64s2.68,3,2.68,5.91C426.4,287.91,422.31,295,417.27,297.9Z" style="fill: rgb(38, 50, 56); transform-origin: 417.27px 287.358px;" id="elsz9w3f8wk9" class="animable"></path><path d="M420.39,278.86a9.1,9.1,0,0,0-.49-3.11,9.46,9.46,0,0,0-2.63,1.07c-5,2.91-9.13,10-9.13,15.81a9.4,9.4,0,0,0,.49,3.11,9.52,9.52,0,0,0,2.64-1.07C416.31,291.76,420.39,284.68,420.39,278.86Z" style="fill: rgb(224, 224, 224); transform-origin: 414.265px 285.745px;" id="el3cml54d5a4n" class="animable"></path><path d="M311.39,316.55a.27.27,0,0,1,.33-.05.39.39,0,0,1,.12.33v2.89a2.9,2.9,0,0,1-.07.68,5.08,5.08,0,0,1-.15.59L308,333.71l-.21.45a1.4,1.4,0,0,1-.48.52l-3.21,2.21a.22.22,0,0,1-.26,0c-.07,0-.1-.13-.1-.26a.83.83,0,0,1,0-.22l3.59-12.64L302.79,327a.28.28,0,0,1-.32,0c-.09-.05-.13-.16-.13-.33v-3.3a1.13,1.13,0,0,1,.13-.51,1,1,0,0,1,.32-.39Z" style="fill: rgb(255, 255, 255); transform-origin: 307.091px 326.699px;" id="eldzkg0wybdc8" class="animable"></path><path d="M311.61,316.46a.13.13,0,0,1,.1,0,.37.37,0,0,1,.13.33v2.89a2.9,2.9,0,0,1-.07.68,5.08,5.08,0,0,1-.15.59L308,333.71l-.21.45a1.4,1.4,0,0,1-.48.52l-3.21,2.21a.29.29,0,0,1-.16.06.17.17,0,0,1-.1,0c-.07,0-.1-.13-.1-.26a.83.83,0,0,1,0-.22l3.59-12.64L302.79,327a.37.37,0,0,1-.21.07.23.23,0,0,1-.11,0c-.09-.05-.13-.16-.13-.33v-3.3a1.13,1.13,0,0,1,.13-.51,1,1,0,0,1,.32-.39l8.6-5.91a.37.37,0,0,1,.22-.09m0-1.19a1.52,1.52,0,0,0-.9.3l-8.6,5.9a2.22,2.22,0,0,0-.71.85,2.31,2.31,0,0,0-.25,1v3.3a1.55,1.55,0,0,0,.68,1.34,1.48,1.48,0,0,0,.75.22,1.52,1.52,0,0,0,.88-.29l1.85-1.27-2.69,9.45a2,2,0,0,0-.08.55,1.46,1.46,0,0,0,.67,1.27,1.35,1.35,0,0,0,.73.21,1.42,1.42,0,0,0,.84-.27l3.21-2.2a2.72,2.72,0,0,0,.86-1,4.46,4.46,0,0,0,.27-.61V334l3.63-12.73c.06-.19.12-.42.17-.65a4.69,4.69,0,0,0,.09-.94v-2.89a1.53,1.53,0,0,0-.62-1.3,1.36,1.36,0,0,0-.8-.26Z" style="fill: rgb(38, 50, 56); transform-origin: 307.08px 326.705px;" id="elqguwz6r5ppg" class="animable"></path><path d="M199.6,329c.21.12.31.27.28.45a.75.75,0,0,1-.4.46l-4.15,2.4a5.44,5.44,0,0,1-1,.47c-.32.1-.64.19-.94.26l-20.65,5.05a5.58,5.58,0,0,1-.78.06,2,2,0,0,1-1.06-.28l-5.26-3a.36.36,0,0,1-.22-.37.55.55,0,0,1,.31-.38,1.26,1.26,0,0,1,.34-.13l20.5-5-7.5-4.33a.44.44,0,0,1-.27-.44.67.67,0,0,1,.39-.47l4.75-2.75a1.87,1.87,0,0,1,.82-.22,1.4,1.4,0,0,1,.77.16Z" style="fill: rgb(255, 255, 255); transform-origin: 182.652px 329.463px;" id="el1og64juz47w" class="animable"></path><path d="M184.82,320.68a1.29,1.29,0,0,1,.68.16L199.6,329c.21.12.31.27.28.45a.75.75,0,0,1-.4.46l-4.15,2.4a5.44,5.44,0,0,1-1,.47c-.32.1-.64.19-.94.26l-20.65,5.05a5.58,5.58,0,0,1-.78.06h-.05a2,2,0,0,1-1-.28l-5.26-3a.36.36,0,0,1-.22-.37.55.55,0,0,1,.31-.38,1.26,1.26,0,0,1,.34-.13l20.5-5-7.5-4.33a.44.44,0,0,1-.27-.44.67.67,0,0,1,.39-.47l4.75-2.75a1.87,1.87,0,0,1,.82-.22h.09m0-2h-.18a3.7,3.7,0,0,0-1.72.49l-4.75,2.74a2.58,2.58,0,0,0-1.36,1.94,2.42,2.42,0,0,0,1.24,2.41l3.23,1.86L165.57,332a3.66,3.66,0,0,0-.86.34,2.53,2.53,0,0,0-1.29,1.86,2.34,2.34,0,0,0,1.21,2.33l5.25,3a3.92,3.92,0,0,0,2,.55h.1a6.6,6.6,0,0,0,1.08-.09h.12l20.66-5.06c.31-.07.66-.17,1.06-.29a7.34,7.34,0,0,0,1.42-.64l4.15-2.4a2.67,2.67,0,0,0,1.36-1.83,2.39,2.39,0,0,0-1.26-2.53l-14.08-8.13a3.31,3.31,0,0,0-1.67-.42Z" style="fill: rgb(38, 50, 56); transform-origin: 182.634px 329.385px;" id="el8r9k51illxp" class="animable"></path></g><g id="freepik--Character--inject-61" class="animable" style="transform-origin: 201.013px 224.824px;"><path d="M202,207.74c2.65-24.56,3.87-37.29,5.71-64.93a75.79,75.79,0,0,1-13.43,6.7c-8.44,3.21-17,4.52-25.93,5.74-15.46,2.11-31.4.83-47,6.18-2.66,24.57-3.87,37.3-5.72,64.94C141.73,209.4,179.61,215.5,202,207.74Z" style="fill: rgb(55, 71, 79); transform-origin: 161.67px 184.59px;" id="ely785hl0xuwk" class="animable"></path><path d="M203.11,197.42a72.94,72.94,0,0,1-10.69,2.76c-.47,4-.71,6-1.2,9.89a82,82,0,0,0,10.8-2.33C202.46,203.65,202.68,201.59,203.11,197.42Z" style="fill: rgb(245, 245, 245); transform-origin: 197.165px 203.745px;" id="el99hbgxseelv" class="animable"></path><path d="M181.45,201.81c-4.43.5-6.67.67-11.15,1-.51,3.81-.77,5.71-1.29,9.52,4.47-.32,6.72-.47,11.17-.89C180.69,207.6,180.94,205.68,181.45,201.81Z" style="fill: rgb(245, 245, 245); transform-origin: 175.23px 207.07px;" id="elo120hubcf1" class="animable"></path><path d="M159.12,203.65c-4.47.36-6.7.56-11.1,1.15-.5,3.9-.75,5.85-1.23,9.79,4.37-.71,6.59-1,11-1.37C158.35,209.38,158.6,207.47,159.12,203.65Z" style="fill: rgb(245, 245, 245); transform-origin: 152.955px 209.12px;" id="elbf5o595w7ms" class="animable"></path><path d="M137.13,206.76A64.63,64.63,0,0,0,126.57,210c-.41,4.24-.6,6.38-1,10.69A60.11,60.11,0,0,1,136,216.92C136.44,212.82,136.67,210.79,137.13,206.76Z" style="fill: rgb(245, 245, 245); transform-origin: 131.35px 213.725px;" id="el4il1fc398lt" class="animable"></path><path d="M193.59,190.16a92.62,92.62,0,0,1-10.89,2c-.5,3.9-.75,5.84-1.26,9.7,4.44-.49,6.64-.79,11-1.63C192.89,196.2,193.13,194.2,193.59,190.16Z" style="fill: rgb(245, 245, 245); transform-origin: 187.515px 196.01px;" id="elnyr0h7hu9s" class="animable"></path><path d="M171.6,193.27c-4.47.37-6.72.5-11.19.84-.52,3.81-.78,5.71-1.3,9.54,4.47-.37,6.72-.51,11.19-.84Z" style="fill: rgb(245, 245, 245); transform-origin: 165.355px 198.46px;" id="ely0qexacbjih" class="animable"></path><path d="M149.27,195.11a110.84,110.84,0,0,0-11,1.63c-.47,4-.71,6-1.17,10a94.75,94.75,0,0,1,10.89-2C148.51,200.91,148.76,199,149.27,195.11Z" style="fill: rgb(245, 245, 245); transform-origin: 143.185px 200.925px;" id="eln00zy1a0auc" class="animable"></path><path d="M127.61,199.49a54.7,54.7,0,0,0-10.26,4.36c-.36,4.4-.54,6.63-.87,11.13a52.57,52.57,0,0,1,10.09-5C127,205.76,127.18,203.66,127.61,199.49Z" style="fill: rgb(245, 245, 245); transform-origin: 122.045px 207.235px;" id="el7mqhgtik6kx" class="animable"></path><path d="M205.13,176.24A60,60,0,0,1,194.72,180c-.45,4.1-.67,6.13-1.13,10.16a64.82,64.82,0,0,0,10.55-3.23C204.55,182.69,204.75,180.55,205.13,176.24Z" style="fill: rgb(245, 245, 245); transform-origin: 199.36px 183.2px;" id="elbyjga7l3tx6" class="animable"></path><path d="M183.92,182.33c-4.37.71-6.59.95-11,1.37-.51,3.84-.77,5.75-1.29,9.57,4.47-.36,6.7-.56,11.1-1.15C183.19,188.22,183.44,186.27,183.92,182.33Z" style="fill: rgb(245, 245, 245); transform-origin: 177.775px 187.8px;" id="eldxga6qphp0r" class="animable"></path><path d="M161.71,184.59c-4.48.32-6.72.47-11.18.89-.51,3.84-.76,5.76-1.27,9.63,4.44-.5,6.67-.67,11.15-1Z" style="fill: rgb(245, 245, 245); transform-origin: 155.485px 189.85px;" id="el80s1bszxy9m" class="animable"></path><path d="M139.49,186.85a81.85,81.85,0,0,0-10.79,2.32c-.45,4.1-.67,6.16-1.09,10.33a72.49,72.49,0,0,1,10.68-2.76C138.76,192.76,139,190.78,139.49,186.85Z" style="fill: rgb(245, 245, 245); transform-origin: 133.55px 193.175px;" id="eljx9zmsu98g" class="animable"></path><path d="M195.8,169.68a72.81,72.81,0,0,1-10.68,2.76c-.47,4-.71,5.95-1.2,9.89A81.88,81.88,0,0,0,194.71,180C195.16,175.91,195.37,173.84,195.8,169.68Z" style="fill: rgb(245, 245, 245); transform-origin: 189.86px 176.005px;" id="el6q8zmhoyv9f" class="animable"></path><path d="M174.14,174.07c-4.43.5-6.67.66-11.14,1l-1.3,9.52c4.48-.33,6.72-.47,11.17-.89C173.38,179.86,173.64,177.94,174.14,174.07Z" style="fill: rgb(245, 245, 245); transform-origin: 167.92px 179.33px;" id="elqomwtbcrsmd" class="animable"></path><path d="M151.81,175.9c-4.46.37-6.69.57-11.1,1.16-.49,3.9-.74,5.85-1.23,9.79,4.38-.71,6.6-.95,11.05-1.37C151,181.64,151.3,179.73,151.81,175.9Z" style="fill: rgb(245, 245, 245); transform-origin: 145.645px 181.375px;" id="elq5cyui2c8d" class="animable"></path><path d="M129.82,179a64.22,64.22,0,0,0-10.55,3.23c-.41,4.24-.61,6.37-1,10.69a58.41,58.41,0,0,1,10.41-3.76C129.14,185.08,129.36,183.05,129.82,179Z" style="fill: rgb(245, 245, 245); transform-origin: 124.045px 185.96px;" id="elzyppbegh87" class="animable"></path><path d="M206.93,154.19a51.43,51.43,0,0,1-10.09,5c-.41,4.24-.61,6.34-1,10.5a54.65,54.65,0,0,0,10.26-4.35C206.42,160.92,206.6,158.7,206.93,154.19Z" style="fill: rgb(245, 245, 245); transform-origin: 201.385px 161.94px;" id="elope0fey2iq" class="animable"></path><path d="M186.29,162.42a94.51,94.51,0,0,1-10.9,2c-.49,3.9-.74,5.84-1.25,9.7,4.43-.49,6.64-.79,11-1.63C185.59,168.46,185.83,166.45,186.29,162.42Z" style="fill: rgb(245, 245, 245); transform-origin: 180.215px 168.27px;" id="elf77oq2vgzmu" class="animable"></path><path d="M164.29,165.53c-4.46.37-6.71.5-11.18.84l-1.3,9.53c4.47-.36,6.71-.5,11.19-.83C163.52,171.26,163.78,169.35,164.29,165.53Z" style="fill: rgb(245, 245, 245); transform-origin: 158.05px 170.715px;" id="elyz4u5pkehje" class="animable"></path><path d="M142,167.36c-4.43.5-6.63.79-11,1.64-.48,4-.71,6-1.17,10a94.37,94.37,0,0,1,10.89-2C141.21,173.17,141.46,171.23,142,167.36Z" style="fill: rgb(245, 245, 245); transform-origin: 135.915px 173.18px;" id="el3lq9c7smkpo" class="animable"></path><path d="M197.83,148.49a59.63,59.63,0,0,1-10.42,3.77c-.44,4.09-.67,6.12-1.13,10.16a65.62,65.62,0,0,0,10.56-3.23C197.24,155,197.44,152.81,197.83,148.49Z" style="fill: rgb(245, 245, 245); transform-origin: 192.055px 155.455px;" id="els0jpup2py6b" class="animable"></path><path d="M176.62,154.59c-4.38.7-6.59.95-11.05,1.37-.51,3.83-.76,5.75-1.28,9.57,4.46-.37,6.69-.57,11.1-1.16C175.89,160.48,176.13,158.52,176.62,154.59Z" style="fill: rgb(245, 245, 245); transform-origin: 170.455px 160.06px;" id="elkcbgpmhyzgm" class="animable"></path><path d="M154.4,156.85c-4.48.32-6.72.47-11.17.89-.51,3.83-.77,5.76-1.27,9.62,4.43-.49,6.67-.66,11.14-1Z" style="fill: rgb(245, 245, 245); transform-origin: 148.18px 162.105px;" id="eltr7sxiq082r" class="animable"></path><path d="M132.18,159.1a83.88,83.88,0,0,0-10.79,2.33c-.44,4.1-.66,6.16-1.09,10.32A71.54,71.54,0,0,1,131,169C131.46,165,131.7,163,132.18,159.1Z" style="fill: rgb(245, 245, 245); transform-origin: 126.24px 165.425px;" id="el2cv3poyhk02" class="animable"></path><path d="M196.82,265.36a1.08,1.08,0,0,0,2.11-.2l10.95-126.84a1.08,1.08,0,1,0-2.15-.18L196.78,265A1,1,0,0,0,196.82,265.36Z" style="fill: rgb(55, 71, 79); transform-origin: 203.333px 201.615px;" id="el0tfjkqyyhzh" class="animable"></path><path d="M213.28,247.16l.57,2.21a1.23,1.23,0,0,1,0,.71,1.27,1.27,0,0,1-.49.54c-2.51,1.81-9,2.14-9.08,1.65-.78-2.89-1.39-6.52-3.48-7.88l-.11-.07.12-1.27-2.11-.76-.06.65,0,0-.62-.45s-1.38-1-1.38-2a1.11,1.11,0,0,1,.9-1.21,1.5,1.5,0,0,1-1-1.58,1.48,1.48,0,0,1,1.44-1.18s-1.47-.68-1-2a1.4,1.4,0,0,1,1.67-1,1.67,1.67,0,0,1-.63-2.26c.36-.82,1.29-1.23,3.93,0a3.69,3.69,0,0,1,2.09-.55,24.56,24.56,0,0,1,4.66,2.71c1.79,1.28,2,4.92,2.59,6.86C212,242.56,212.67,244.86,213.28,247.16Z" style="fill: rgb(255, 168, 167); transform-origin: 205.217px 241.479px;" id="eltvdpnz3gmt" class="animable"></path><path d="M203.19,233.84a9.28,9.28,0,0,1-1.2,1.88,1.12,1.12,0,0,1-1.37.3c-.31-.14-.22-3.38-.22-3.38l1.61-1.38a14,14,0,0,0-1.69,1.23c-.3.24-.17,2.7-.22,3.31s1.37,1.23,2.26,0l.08-.13s0,0,0,0a3.21,3.21,0,0,1,1,1.32c.14.32.29.7,0,1a.9.9,0,0,1-.53.17,1.63,1.63,0,0,1-.44,0,.9.9,0,0,0-.4,0h0s0,.06,0,.08.31.27.47.4c.47.42,1,1.21.51,1.78a1.15,1.15,0,0,1-1,.38c-.29,0-.56-.11-.84-.11-.05,0-.12,0-.11.07s0,0,0,0a4.19,4.19,0,0,1,1.05,1,1,1,0,0,1,.18.86c-.14.34-.69.52-1,.54h-.16s0,0,0,0,0,0,0,0a1.57,1.57,0,0,0,.31.08,1.09,1.09,0,0,0,1.19-.82,1.2,1.2,0,0,0-.38-1.27,1.38,1.38,0,0,0,1.29-.52c.74-.8.24-1.46-.39-2.06a1.09,1.09,0,0,0,.59-.28,8.2,8.2,0,0,0,1.41,4,13.18,13.18,0,0,1-.81-4.72,12,12,0,0,1,.74-3.71S203.66,234.2,203.19,233.84Zm.7,2-.12,0a1.27,1.27,0,0,1-.43-.09,5.21,5.21,0,0,0-.74-.3,14.26,14.26,0,0,0,.85-1.27,1.15,1.15,0,0,0,.74,0A10.62,10.62,0,0,0,203.89,235.83Z" style="fill: rgb(242, 143, 143); transform-origin: 202.644px 237.254px;" id="elk030n3iwg7" class="animable"></path><path d="M241,273.79c-1.55-1.27-6.27-1.19-9.1-2.29s-10.79-7.09-10.79-7.09l-8.64-20.56s-.27,3-3.82,5.21a8.58,8.58,0,0,1-5.11,1.41s3.56,14.18,4.88,19c1.39,5.1,2.53,5,5.76,7.23,3.91,2.75,26.29,16.91,26.29,16.91s2.12.18,3.68-4S244.45,278.47,241,273.79Z" style="fill: rgb(69, 90, 100); transform-origin: 224.176px 268.731px;" id="elu33wblr0nfd" class="animable"></path><path d="M271.82,295,241,310a43.13,43.13,0,0,1-6.77,2.55c.59-7.21.73-17.81.94-26.16,0-.93.08-1.84.17-2.72.45-4.14,2.66-8.45,5.39-10.37s6.22-.41,9.37-1.9c3.12.81,7.3.11,10-.57,4.06-1,5.81.53,8.15,5.95a30.16,30.16,0,0,1,2.43,7.88C271.11,287,271.43,290.24,271.82,295Z" style="fill: rgb(55, 71, 79); transform-origin: 253.025px 291.547px;" id="elpk0l004ss7" class="animable"></path><path d="M242.19,270.05l.56.13a14.5,14.5,0,0,0,17.32-11h0a14,14,0,0,0-10.59-16.69l-1.58-.35a14,14,0,0,0-16.69,10.58h0A14.48,14.48,0,0,0,242.19,270.05Z" style="fill: rgb(38, 50, 56); transform-origin: 245.628px 256.169px;" id="elm2hmbpf2y1d" class="animable"></path><path d="M236.69,247.65c-1.66.84-3.92,4.72-4.31,13.17C232,268,234,269.94,235,270.71a9.75,9.75,0,0,0,6.24,1.44l2.08,2.71s.15,5.4,7.65,2.55a5.21,5.21,0,0,0,3.14-4.33l-3-6.64a2.69,2.69,0,0,0,3.21-.21c2.58-2.08,2.4-4.89,1.1-6.41a2.87,2.87,0,0,0-4.72,1s-3.08-.41-7.36-3.53C238.69,253.86,237.73,250.74,236.69,247.65Z" style="fill: rgb(177, 102, 104); transform-origin: 244.339px 262.945px;" id="elotxjeldgdp" class="animable"></path><path d="M240.41,259.34a.9.9,0,0,0,.78,1,.93.93,0,0,0,1-.82.9.9,0,1,0-1.79-.21Z" style="fill: rgb(38, 50, 56); transform-origin: 241.298px 259.427px;" id="elijb4d0oqvlb" class="animable"></path><path d="M240.79,265.35l-3.1.76a1.58,1.58,0,0,0,1.9,1.23A1.67,1.67,0,0,0,240.79,265.35Z" style="fill: rgb(242, 143, 143); transform-origin: 239.261px 266.365px;" id="elmamvyyt1j1j" class="animable"></path><path d="M233.42,256l2.17-.46a1.07,1.07,0,0,0-1.28-.87A1.16,1.16,0,0,0,233.42,256Z" style="fill: rgb(38, 50, 56); transform-origin: 234.496px 255.323px;" id="elnb58chf6f8e" class="animable"></path><path d="M241.24,256.28l1.77,1.34a1.07,1.07,0,0,0-.18-1.54A1.16,1.16,0,0,0,241.24,256.28Z" style="fill: rgb(38, 50, 56); transform-origin: 242.249px 256.736px;" id="elilc5c7jux8" class="animable"></path><path d="M233.52,258.33a.9.9,0,1,0,1-.82A.92.92,0,0,0,233.52,258.33Z" style="fill: rgb(38, 50, 56); transform-origin: 234.417px 258.405px;" id="eln5w7tyc3kjj" class="animable"></path><polygon points="237.74 258.56 237.22 263.96 234.43 262.88 237.74 258.56" style="fill: rgb(242, 143, 143); transform-origin: 236.085px 261.26px;" id="elzgwz9yxtmk" class="animable"></polygon><path d="M255.46,267.62c-4.42,4.36-13.73,6.15-16.14,6.14s-3.75-.15-5.91-1.81-3.44-4.69-3.7-8a7.78,7.78,0,0,0,.6,2.36c1.19,2.53,3.09,4.18,6.83,4.26s8.72-3.85,11.18-7.36c2-2.78,4.92-9.35,3.21-10.66-.7-.53-8.19,3.86-15.38,1.65-3.94-1.21-4.46-3-4.76-3.85,4-12.14,22.25-13.24,27.89-2.3S255.46,267.62,255.46,267.62Z" style="fill: rgb(0, 78, 204); transform-origin: 245.392px 257.129px;" id="elspj4ghn3c1" class="animable"></path><g id="elw2cvx8vinzi"><path d="M255.46,267.62c-4.42,4.36-13.73,6.15-16.14,6.14s-3.75-.15-5.91-1.81-3.44-4.69-3.7-8a7.78,7.78,0,0,0,.6,2.36c1.19,2.53,3.09,4.18,6.83,4.26s8.72-3.85,11.18-7.36c2-2.78,4.92-9.35,3.21-10.66-.7-.53-8.19,3.86-15.38,1.65-3.94-1.21-4.46-3-4.76-3.85,4-12.14,22.25-13.24,27.89-2.3S255.46,267.62,255.46,267.62Z" style="fill: rgb(255, 255, 255); opacity: 0.4; transform-origin: 245.392px 257.129px;" class="animable"></path></g><path d="M248.32,263.17c-2.46,3.51-7.44,7.43-11.18,7.36s-5.64-1.73-6.83-4.26a7.78,7.78,0,0,1-.6-2.36c-.38-3.1.13-8,1.68-13.6.3.81.82,2.64,4.76,3.85,7.19,2.21,14.68-2.18,15.38-1.65C253.24,253.82,250.28,260.39,248.32,263.17Z" style="fill: rgb(38, 50, 56); transform-origin: 240.816px 260.42px;" id="elgv49im7c9" class="animable"></path><g id="elzji7rzaf6z"><path d="M235,253.76c-2.92-1.18-3.37-2.72-3.64-3.45-1.55,5.64-2.06,10.5-1.68,13.6a7.78,7.78,0,0,0,.6,2.36,6.7,6.7,0,0,0,4.15,3.84c-.11-.89-.29-1.78-.39-2.68a26.76,26.76,0,0,1-.1-3.58A43.62,43.62,0,0,1,235,253.76Zm4.06,2.09a6.34,6.34,0,0,1,.33-1.11,16,16,0,0,1-1.81-.22l0,.14a50.41,50.41,0,0,0-.52,10.84,49,49,0,0,0,.58,5,7.26,7.26,0,0,0,1.77-.34A60.43,60.43,0,0,1,239.09,255.85Z" style="fill: rgb(255, 255, 255); opacity: 0.1; transform-origin: 234.485px 260.405px;" class="animable"></path></g><g id="elbuf4onzm4zq"><path d="M247.38,240.52c-10.47,1.23-13.45,8.8-14.55,12h0a9.12,9.12,0,0,0,3.32,1.67,14.84,14.84,0,0,0,4.37.62,19.08,19.08,0,0,1,5.69-8.85,9.54,9.54,0,0,1,10.19-1.66A15.2,15.2,0,0,0,247.38,240.52Z" style="fill: rgb(255, 255, 255); opacity: 0.4; transform-origin: 244.615px 247.665px;" class="animable"></path></g><path d="M276.9,232.73c-.34-1.2-1.09-2.8-1-3.85a24.39,24.39,0,0,0,.08-3.83c-.08-1.83-.21-3.33-.21-3.33s-.17-1.69-1-2.17a1.11,1.11,0,0,0-1.5.16,1.41,1.41,0,0,0-2.6-1s.16-1.62-1.24-1.9a1.39,1.39,0,0,0-1.73.92,1.67,1.67,0,0,0-1.62-1.69c-.9-.1-1.72.49-2,3.37,0,0-1.24.67-1.53,1.52a25.36,25.36,0,0,0,0,5.39c.09,1,1.49,2.45,2.53,3.8,1.4,1.81,1.89,3.08,3.05,6.09C271.61,237,274.59,236,276.9,232.73Z" style="fill: rgb(255, 168, 167); transform-origin: 269.653px 226.248px;" id="el3v0p5dd0w9o" class="animable"></path><path d="M264.71,223.49a12.2,12.2,0,0,1,3.57,1.24,13.16,13.16,0,0,1,3.67,3.1,8.3,8.3,0,0,0-2.74-3.24,1.17,1.17,0,0,0,.54-.37c.2.85.52,1.61,1.58,1.38a1.37,1.37,0,0,0,1.1-.85,1.22,1.22,0,0,0,.9,1,1.11,1.11,0,0,0,1.31-.61,1.92,1.92,0,0,0,.09-.32s0,0,0-.05,0,0,0,0l-.09.13c-.19.28-.62.66-1,.61s-.51-.34-.64-.59a4.38,4.38,0,0,1-.3-1.39s0,0,0-.05-.09,0-.11.06c-.14.24-.21.52-.33.78a1.14,1.14,0,0,1-.84.66c-.76.16-1.15-.72-1.27-1.33,0-.21-.07-.41-.11-.61,0,0,0-.07-.06-.06l0,0a1.16,1.16,0,0,0-.18.35,1.79,1.79,0,0,1-.2.39.94.94,0,0,1-.42.37c-.38.16-.63-.17-.84-.45a3.26,3.26,0,0,1-.61-1.56s0,0,0,0h.15c1.51-.14,1.69-1.69,1.14-1.95s-2.61-1.63-3-1.49a14.69,14.69,0,0,0-1.93.83l2-.69s2.84,1.57,2.81,1.91a1.13,1.13,0,0,1-1,1,9.56,9.56,0,0,1-2.23.08C265.77,222.32,264.71,223.49,264.71,223.49Zm.77-.73a1.14,1.14,0,0,0,.38-.63s.37,0,1.53-.09a5.39,5.39,0,0,0-.12.79,1.48,1.48,0,0,1-.14.42.34.34,0,0,1-.08.09A10.82,10.82,0,0,0,265.48,222.76Z" style="fill: rgb(242, 143, 143); transform-origin: 269.41px 223.23px;" id="elcpfo9gjntdo" class="animable"></path><path d="M259.73,271.46c.73-1.86,4.9-4.09,6.83-6.44s6-11.44,6-11.44l-4.67-18a8.68,8.68,0,0,0,5.56-.77c2.8-1.46,3.21-3,3.21-3s7.23,16.19,8.91,20.27.51,4.26-.95,8.81-14.71,27.58-14.71,27.58-1.76,1.19-5.18-1.72S259,277.23,259.73,271.46Z" style="fill: rgb(69, 90, 100); transform-origin: 272.996px 260.26px;" id="elf2cu0dx5e2" class="animable"></path><path d="M254.82,271.73c-.91-.18-1.08-1-1.36-1.45a.41.41,0,0,0-.68-.14l.28.62a6.14,6.14,0,0,1-2.24,3.76,12.09,12.09,0,0,1-6.18,2.22c-.78,0-.86-1.29-1.32-1.88l-.85-1.1s-.65.6-.3,1.24a5.06,5.06,0,0,1,.18,3.32s.86,2,4.2,1.62,5.3-1.43,6.78-3.24S255.44,272.49,254.82,271.73Z" style="fill: rgb(38, 50, 56); transform-origin: 248.562px 275.001px;" id="el9udn3kfb5k9" class="animable"></path></g></g><defs>     <filter id="active" height="200%">         <feMorphology in="SourceAlpha" result="DILATED" operator="dilate" radius="2"></feMorphology>                <feFlood flood-color="#32DFEC" flood-opacity="1" result="PINK"></feFlood>        <feComposite in="PINK" in2="DILATED" operator="in" result="OUTLINE"></feComposite>        <feMerge>            <feMergeNode in="OUTLINE"></feMergeNode>            <feMergeNode in="SourceGraphic"></feMergeNode>        </feMerge>    </filter>    <filter id="hover" height="200%">        <feMorphology in="SourceAlpha" result="DILATED" operator="dilate" radius="2"></feMorphology>                <feFlood flood-color="#ff0000" flood-opacity="0.5" result="PINK"></feFlood>        <feComposite in="PINK" in2="DILATED" operator="in" result="OUTLINE"></feComposite>        <feMerge>            <feMergeNode in="OUTLINE"></feMergeNode>            <feMergeNode in="SourceGraphic"></feMergeNode>        </feMerge>            <feColorMatrix type="matrix" values="0   0   0   0   0                0   1   0   0   0                0   0   0   0   0                0   0   0   1   0 "></feColorMatrix>    </filter></defs></svg>